<?xml version="1.0" encoding="UTF-8" standalone="no"?>
<!DOCTYPE svg PUBLIC "-//W3C//DTD SVG 1.1//EN"
 "http://www.w3.org/Graphics/SVG/1.1/DTD/svg11.dtd">
<!-- Generated by graphviz version 2.43.0 (0)
 -->
<!-- Title: %3 Pages: 1 -->
<svg width="3125pt" height="1219pt"
 viewBox="0.00 0.00 3125.05 1219.00" xmlns="http://www.w3.org/2000/svg" xmlns:xlink="http://www.w3.org/1999/xlink">
<g id="graph0" class="graph" transform="scale(1 1) rotate(0) translate(4 1215)">
<title>%3</title>
<polygon fill="white" stroke="transparent" points="-4,4 -4,-1215 3121.05,-1215 3121.05,4 -4,4"/>
<text text-anchor="middle" x="1558.53" y="-7.8" font-family="Times,serif" font-size="14.00">System Call Sequence</text>
<!-- mprotect -->
<g id="node1" class="node">
<title>mprotect</title>
<ellipse fill="none" stroke="black" cx="2758.05" cy="-1193" rx="53.09" ry="18"/>
<text text-anchor="middle" x="2758.05" y="-1189.3" font-family="Times,serif" font-size="14.00">mprotect</text>
</g>
<!-- mprotect&#45;&gt;mprotect -->
<g id="edge1" class="edge">
<title>mprotect&#45;&gt;mprotect</title>
<path fill="none" stroke="black" d="M2794.74,-1206.1C2813.03,-1207.91 2829.35,-1203.55 2829.35,-1193 2829.35,-1184.51 2818.78,-1180.03 2805.12,-1179.54"/>
<polygon fill="black" stroke="black" points="2804.61,-1176.06 2794.74,-1179.9 2804.85,-1183.06 2804.61,-1176.06"/>
</g>
<!-- clock_gettime -->
<g id="node2" class="node">
<title>clock_gettime</title>
<ellipse fill="none" stroke="black" cx="2511.05" cy="-1121" rx="74.99" ry="18"/>
<text text-anchor="middle" x="2511.05" y="-1117.3" font-family="Times,serif" font-size="14.00">clock_gettime</text>
</g>
<!-- mprotect&#45;&gt;clock_gettime -->
<g id="edge2" class="edge">
<title>mprotect&#45;&gt;clock_gettime</title>
<path fill="none" stroke="black" d="M2718.64,-1180.83C2677.78,-1169.25 2613.54,-1151.04 2567.34,-1137.95"/>
<polygon fill="black" stroke="black" points="2568.06,-1134.52 2557.48,-1135.16 2566.15,-1141.25 2568.06,-1134.52"/>
</g>
<!-- ioctl -->
<g id="node3" class="node">
<title>ioctl</title>
<ellipse fill="none" stroke="black" cx="1655.05" cy="-1049" rx="30.59" ry="18"/>
<text text-anchor="middle" x="1655.05" y="-1045.3" font-family="Times,serif" font-size="14.00">ioctl</text>
</g>
<!-- mprotect&#45;&gt;ioctl -->
<g id="edge3" class="edge">
<title>mprotect&#45;&gt;ioctl</title>
<path fill="none" stroke="black" d="M2707.77,-1186.99C2559.69,-1171.98 2112.47,-1124.83 1744.05,-1067 1727.35,-1064.38 1708.99,-1060.96 1693.31,-1057.88"/>
<polygon fill="black" stroke="black" points="1693.92,-1054.43 1683.43,-1055.92 1692.55,-1061.3 1693.92,-1054.43"/>
</g>
<!-- epoll_wait -->
<g id="node4" class="node">
<title>epoll_wait</title>
<ellipse fill="none" stroke="black" cx="1145.05" cy="-401" rx="57.69" ry="18"/>
<text text-anchor="middle" x="1145.05" y="-397.3" font-family="Times,serif" font-size="14.00">epoll_wait</text>
</g>
<!-- mprotect&#45;&gt;epoll_wait -->
<g id="edge4" class="edge">
<title>mprotect&#45;&gt;epoll_wait</title>
<path fill="none" stroke="black" d="M2704.74,-1191.29C2403.38,-1186.97 910.89,-1161.06 462.05,-1067 372.86,-1048.31 333.71,-1060.22 270.05,-995 193.47,-916.54 189.05,-871.63 189.05,-762 189.05,-762 189.05,-762 189.05,-688 189.05,-581.33 275.67,-582.03 367.05,-527 447.27,-478.69 473.67,-475.43 565.05,-455 746.92,-414.34 967.54,-404.76 1076.85,-402.58"/>
<polygon fill="black" stroke="black" points="1077.15,-406.07 1087.08,-402.39 1077.02,-399.07 1077.15,-406.07"/>
</g>
<!-- clock_gettime&#45;&gt;clock_gettime -->
<g id="edge35" class="edge">
<title>clock_gettime&#45;&gt;clock_gettime</title>
<path fill="none" stroke="black" d="M2561.61,-1134.29C2584.23,-1135.55 2603.8,-1131.12 2603.8,-1121 2603.8,-1112.42 2589.74,-1107.93 2571.68,-1107.53"/>
<polygon fill="black" stroke="black" points="2571.55,-1104.03 2561.61,-1107.71 2571.68,-1111.03 2571.55,-1104.03"/>
</g>
<!-- clock_gettime&#45;&gt;ioctl -->
<g id="edge31" class="edge">
<title>clock_gettime&#45;&gt;ioctl</title>
<path fill="none" stroke="black" d="M2437.18,-1118.01C2298.72,-1113.5 1991.36,-1100.21 1735.05,-1067 1720.88,-1065.16 1705.56,-1062.49 1692.09,-1059.8"/>
<polygon fill="black" stroke="black" points="1692.71,-1056.36 1682.2,-1057.76 1691.29,-1063.21 1692.71,-1056.36"/>
</g>
<!-- clock_gettime&#45;&gt;epoll_wait -->
<g id="edge21" class="edge">
<title>clock_gettime&#45;&gt;epoll_wait</title>
<path fill="none" stroke="black" d="M2436.56,-1119.28C2047.26,-1115.01 265.05,-1089.15 265.05,-978 265.05,-978 265.05,-978 265.05,-760 265.05,-515.44 485.04,-511.22 723.05,-455 846.31,-425.89 994.29,-411.8 1078.31,-405.81"/>
<polygon fill="black" stroke="black" points="1078.75,-409.28 1088.48,-405.1 1078.26,-402.3 1078.75,-409.28"/>
</g>
<!-- close -->
<g id="node5" class="node">
<title>close</title>
<ellipse fill="none" stroke="black" cx="2078.05" cy="-41" rx="34.39" ry="18"/>
<text text-anchor="middle" x="2078.05" y="-37.3" font-family="Times,serif" font-size="14.00">close</text>
</g>
<!-- clock_gettime&#45;&gt;close -->
<g id="edge34" class="edge">
<title>clock_gettime&#45;&gt;close</title>
<path fill="none" stroke="black" d="M2584.56,-1117.66C2742.38,-1110.7 3099.05,-1083.41 3099.05,-978 3099.05,-978 3099.05,-978 3099.05,-184 3099.05,-83.47 2319.05,-50.37 2122.53,-43.47"/>
<polygon fill="black" stroke="black" points="2122.4,-39.97 2112.28,-43.12 2122.15,-46.96 2122.4,-39.97"/>
</g>
<!-- read -->
<g id="node6" class="node">
<title>read</title>
<ellipse fill="none" stroke="black" cx="2078.05" cy="-113" rx="31.7" ry="18"/>
<text text-anchor="middle" x="2078.05" y="-109.3" font-family="Times,serif" font-size="14.00">read</text>
</g>
<!-- clock_gettime&#45;&gt;read -->
<g id="edge26" class="edge">
<title>clock_gettime&#45;&gt;read</title>
<path fill="none" stroke="black" d="M2576.65,-1112.35C2698.92,-1096.75 2949.05,-1055.97 2949.05,-978 2949.05,-978 2949.05,-978 2949.05,-256 2949.05,-179.63 2874.83,-190.17 2802.05,-167 2673.18,-125.96 2255.04,-116.55 2120.25,-114.52"/>
<polygon fill="black" stroke="black" points="2119.98,-111.02 2109.93,-114.37 2119.88,-118.02 2119.98,-111.02"/>
</g>
<!-- sendmsg -->
<g id="node7" class="node">
<title>sendmsg</title>
<ellipse fill="none" stroke="black" cx="767.05" cy="-185" rx="51.99" ry="18"/>
<text text-anchor="middle" x="767.05" y="-181.3" font-family="Times,serif" font-size="14.00">sendmsg</text>
</g>
<!-- clock_gettime&#45;&gt;sendmsg -->
<g id="edge23" class="edge">
<title>clock_gettime&#45;&gt;sendmsg</title>
<path fill="none" stroke="black" d="M2436.5,-1119.47C2115.34,-1116.93 848.94,-1104.55 453.05,-1067 257.09,-1048.41 143.43,-1145.08 16.05,-995 -15.01,-958.4 9.22,-934.51 16.05,-887 33.79,-763.66 95.05,-742.6 95.05,-618 95.05,-618 95.05,-618 95.05,-328 95.05,-272.99 131.45,-262.78 181.05,-239 271.8,-195.49 573.16,-187.62 704.78,-186.25"/>
<polygon fill="black" stroke="black" points="705.12,-189.75 715.09,-186.16 705.06,-182.75 705.12,-189.75"/>
</g>
<!-- epoll_ctl -->
<g id="node8" class="node">
<title>epoll_ctl</title>
<ellipse fill="none" stroke="black" cx="2164.05" cy="-257" rx="49.29" ry="18"/>
<text text-anchor="middle" x="2164.05" y="-253.3" font-family="Times,serif" font-size="14.00">epoll_ctl</text>
</g>
<!-- clock_gettime&#45;&gt;epoll_ctl -->
<g id="edge24" class="edge">
<title>clock_gettime&#45;&gt;epoll_ctl</title>
<path fill="none" stroke="black" d="M2575.37,-1111.74C2649.51,-1098.38 2761.05,-1064.15 2761.05,-978 2761.05,-978 2761.05,-978 2761.05,-616 2761.05,-389.6 2558.72,-405.65 2353.05,-311 2308.84,-290.65 2255.35,-276.92 2216.49,-268.54"/>
<polygon fill="black" stroke="black" points="2216.95,-265.06 2206.44,-266.42 2215.5,-271.91 2216.95,-265.06"/>
</g>
<!-- timerfd_settime -->
<g id="node9" class="node">
<title>timerfd_settime</title>
<ellipse fill="none" stroke="black" cx="1882.05" cy="-329" rx="85.29" ry="18"/>
<text text-anchor="middle" x="1882.05" y="-325.3" font-family="Times,serif" font-size="14.00">timerfd_settime</text>
</g>
<!-- clock_gettime&#45;&gt;timerfd_settime -->
<g id="edge20" class="edge">
<title>clock_gettime&#45;&gt;timerfd_settime</title>
<path fill="none" stroke="black" d="M2505.34,-1102.95C2502.05,-1076.29 2502.05,-1023.11 2502.05,-978 2502.05,-978 2502.05,-978 2502.05,-904 2502.05,-593.29 2078.1,-405.87 1931.29,-348.73"/>
<polygon fill="black" stroke="black" points="1932.21,-345.33 1921.62,-344.99 1929.69,-351.86 1932.21,-345.33"/>
</g>
<!-- write -->
<g id="node10" class="node">
<title>write</title>
<ellipse fill="none" stroke="black" cx="1372.05" cy="-545" rx="35.19" ry="18"/>
<text text-anchor="middle" x="1372.05" y="-541.3" font-family="Times,serif" font-size="14.00">write</text>
</g>
<!-- clock_gettime&#45;&gt;write -->
<g id="edge33" class="edge">
<title>clock_gettime&#45;&gt;write</title>
<path fill="none" stroke="black" d="M2436.66,-1118.92C2340.97,-1115.97 2170.73,-1105.27 2031.05,-1067 1880.64,-1025.78 1844.54,-1003.65 1711.05,-923 1551.2,-826.43 1508.59,-790.43 1405.05,-635 1392.01,-615.41 1380.84,-591.14 1374.71,-572.89"/>
<polygon fill="black" stroke="black" points="1378.02,-571.74 1371.78,-563.19 1371.32,-573.77 1378.02,-571.74"/>
</g>
<!-- lseek -->
<g id="node11" class="node">
<title>lseek</title>
<ellipse fill="none" stroke="black" cx="1792.05" cy="-689" rx="34.39" ry="18"/>
<text text-anchor="middle" x="1792.05" y="-685.3" font-family="Times,serif" font-size="14.00">lseek</text>
</g>
<!-- clock_gettime&#45;&gt;lseek -->
<g id="edge25" class="edge">
<title>clock_gettime&#45;&gt;lseek</title>
<path fill="none" stroke="black" d="M2474.45,-1105.13C2457.17,-1095.76 2437.42,-1082.51 2423.05,-1067 2385.6,-1026.55 2398.74,-1000.15 2362.05,-959 2212.87,-791.65 1937.98,-720.82 1833.6,-698.46"/>
<polygon fill="black" stroke="black" points="1834.25,-695.02 1823.75,-696.39 1832.81,-701.87 1834.25,-695.02"/>
</g>
<!-- recvmsg -->
<g id="node12" class="node">
<title>recvmsg</title>
<ellipse fill="none" stroke="black" cx="1991.05" cy="-617" rx="50.09" ry="18"/>
<text text-anchor="middle" x="1991.05" y="-613.3" font-family="Times,serif" font-size="14.00">recvmsg</text>
</g>
<!-- clock_gettime&#45;&gt;recvmsg -->
<g id="edge36" class="edge">
<title>clock_gettime&#45;&gt;recvmsg</title>
<path fill="none" stroke="black" d="M2496.13,-1103.33C2474.88,-1073.32 2435.7,-1008.71 2396.05,-959 2280.25,-813.78 2093.56,-687.84 2021.02,-639.3"/>
<polygon fill="black" stroke="black" points="2022.61,-636.15 2012.35,-633.5 2018.72,-641.97 2022.61,-636.15"/>
</g>
<!-- readlink -->
<g id="node13" class="node">
<title>readlink</title>
<ellipse fill="none" stroke="black" cx="980.05" cy="-761" rx="48.99" ry="18"/>
<text text-anchor="middle" x="980.05" y="-757.3" font-family="Times,serif" font-size="14.00">readlink</text>
</g>
<!-- clock_gettime&#45;&gt;readlink -->
<g id="edge22" class="edge">
<title>clock_gettime&#45;&gt;readlink</title>
<path fill="none" stroke="black" d="M2436.69,-1119.17C2234.33,-1116.37 1677.45,-1105.22 1499.05,-1067 1325.7,-1029.86 1285.41,-1002.71 1127.05,-923 1073.53,-896.06 1052.76,-895.89 1013.05,-851 997.1,-832.97 985.99,-807.82 980.72,-788.86"/>
<polygon fill="black" stroke="black" points="984.1,-787.97 978.4,-779.04 977.29,-789.58 984.1,-787.97"/>
</g>
<!-- statx -->
<g id="node14" class="node">
<title>statx</title>
<ellipse fill="none" stroke="black" cx="1360.05" cy="-905" rx="34.39" ry="18"/>
<text text-anchor="middle" x="1360.05" y="-901.3" font-family="Times,serif" font-size="14.00">statx</text>
</g>
<!-- clock_gettime&#45;&gt;statx -->
<g id="edge28" class="edge">
<title>clock_gettime&#45;&gt;statx</title>
<path fill="none" stroke="black" d="M2436.43,-1119.06C2248.94,-1116.11 1762.33,-1104.83 1606.05,-1067 1529.08,-1048.37 1508.76,-1039.22 1443.05,-995 1415.91,-976.73 1389.56,-950.04 1373.78,-930.66"/>
<polygon fill="black" stroke="black" points="1376.4,-928.33 1367.5,-922.58 1370.88,-932.63 1376.4,-928.33"/>
</g>
<!-- openat -->
<g id="node15" class="node">
<title>openat</title>
<ellipse fill="none" stroke="black" cx="1810.05" cy="-833" rx="42.49" ry="18"/>
<text text-anchor="middle" x="1810.05" y="-829.3" font-family="Times,serif" font-size="14.00">openat</text>
</g>
<!-- clock_gettime&#45;&gt;openat -->
<g id="edge27" class="edge">
<title>clock_gettime&#45;&gt;openat</title>
<path fill="none" stroke="black" d="M2449.24,-1110.69C2401.24,-1101.97 2333.74,-1087.26 2277.05,-1067 2104.23,-1005.23 1911.74,-898.26 1839.41,-854.03"/>
<polygon fill="black" stroke="black" points="1841.15,-850.99 1830.8,-848.71 1837.47,-856.94 1841.15,-850.99"/>
</g>
<!-- fcntl -->
<g id="node16" class="node">
<title>fcntl</title>
<ellipse fill="none" stroke="black" cx="1924.05" cy="-977" rx="31.7" ry="18"/>
<text text-anchor="middle" x="1924.05" y="-973.3" font-family="Times,serif" font-size="14.00">fcntl</text>
</g>
<!-- clock_gettime&#45;&gt;fcntl -->
<g id="edge19" class="edge">
<title>clock_gettime&#45;&gt;fcntl</title>
<path fill="none" stroke="black" d="M2439.59,-1115.51C2362.61,-1109.25 2237.36,-1095.32 2133.05,-1067 2066.58,-1048.95 1993.17,-1016.11 1953.32,-995.76"/>
<polygon fill="black" stroke="black" points="1954.89,-992.63 1944.4,-991.12 1951.66,-998.84 1954.89,-992.63"/>
</g>
<!-- futex -->
<g id="node17" class="node">
<title>futex</title>
<ellipse fill="none" stroke="black" cx="1001.05" cy="-473" rx="34.39" ry="18"/>
<text text-anchor="middle" x="1001.05" y="-469.3" font-family="Times,serif" font-size="14.00">futex</text>
</g>
<!-- clock_gettime&#45;&gt;futex -->
<g id="edge29" class="edge">
<title>clock_gettime&#45;&gt;futex</title>
<path fill="none" stroke="black" d="M2436.03,-1120.12C2214.14,-1119.93 1564.14,-1115.27 1359.05,-1067 1123.53,-1011.57 999.15,-998.37 897.05,-779 849.29,-676.37 868.96,-619.62 934.05,-527 943.29,-513.85 956.31,-501.58 968.55,-492.16"/>
<polygon fill="black" stroke="black" points="970.82,-494.84 976.85,-486.12 966.7,-489.18 970.82,-494.84"/>
</g>
<!-- sendto -->
<g id="node18" class="node">
<title>sendto</title>
<ellipse fill="none" stroke="black" cx="2320.05" cy="-977" rx="42.49" ry="18"/>
<text text-anchor="middle" x="2320.05" y="-973.3" font-family="Times,serif" font-size="14.00">sendto</text>
</g>
<!-- clock_gettime&#45;&gt;sendto -->
<g id="edge30" class="edge">
<title>clock_gettime&#45;&gt;sendto</title>
<path fill="none" stroke="black" d="M2458.92,-1107.94C2432,-1099.76 2399.91,-1086.75 2376.05,-1067 2355.73,-1050.17 2340.5,-1023.96 2331.09,-1004.34"/>
<polygon fill="black" stroke="black" points="2334.18,-1002.66 2326.83,-995.03 2327.81,-1005.58 2334.18,-1002.66"/>
</g>
<!-- recvfrom -->
<g id="node19" class="node">
<title>recvfrom</title>
<ellipse fill="none" stroke="black" cx="2749.05" cy="-185" rx="52.79" ry="18"/>
<text text-anchor="middle" x="2749.05" y="-181.3" font-family="Times,serif" font-size="14.00">recvfrom</text>
</g>
<!-- clock_gettime&#45;&gt;recvfrom -->
<g id="edge32" class="edge">
<title>clock_gettime&#45;&gt;recvfrom</title>
<path fill="none" stroke="black" d="M2574.76,-1111.58C2635.13,-1102.94 2720.24,-1087.81 2747.05,-1067 2795.67,-1029.26 2893.05,-933.3 2893.05,-762 2893.05,-762 2893.05,-762 2893.05,-472 2893.05,-363.9 2807.02,-257.1 2767.77,-210.43"/>
<polygon fill="black" stroke="black" points="2770.36,-208.08 2761.24,-202.69 2765.01,-212.59 2770.36,-208.08"/>
</g>
<!-- gettimeofday -->
<g id="node20" class="node">
<title>gettimeofday</title>
<ellipse fill="none" stroke="black" cx="2158.05" cy="-905" rx="72.29" ry="18"/>
<text text-anchor="middle" x="2158.05" y="-901.3" font-family="Times,serif" font-size="14.00">gettimeofday</text>
</g>
<!-- clock_gettime&#45;&gt;gettimeofday -->
<g id="edge37" class="edge">
<title>clock_gettime&#45;&gt;gettimeofday</title>
<path fill="none" stroke="black" d="M2455.82,-1108.82C2421.61,-1100.44 2377.58,-1086.94 2342.05,-1067 2275.57,-1029.69 2211.81,-965.49 2179.67,-930.49"/>
<polygon fill="black" stroke="black" points="2181.88,-927.72 2172.57,-922.67 2176.7,-932.42 2181.88,-927.72"/>
</g>
<!-- ioctl&#45;&gt;clock_gettime -->
<g id="edge196" class="edge">
<title>ioctl&#45;&gt;clock_gettime</title>
<path fill="none" stroke="black" d="M1684.14,-1054.93C1703.83,-1058.79 1729.97,-1064.01 1753.05,-1067 1996.96,-1098.61 2287.12,-1112.17 2427.23,-1117.29"/>
<polygon fill="black" stroke="black" points="2427.34,-1120.8 2437.46,-1117.66 2427.59,-1113.8 2427.34,-1120.8"/>
</g>
<!-- ioctl&#45;&gt;ioctl -->
<g id="edge198" class="edge">
<title>ioctl&#45;&gt;ioctl</title>
<path fill="none" stroke="black" d="M1677.02,-1061.55C1690.64,-1064.57 1703.6,-1060.39 1703.6,-1049 1703.6,-1040.55 1696.46,-1036.06 1687.21,-1035.55"/>
<polygon fill="black" stroke="black" points="1686.67,-1032.08 1677.02,-1036.45 1687.29,-1039.06 1686.67,-1032.08"/>
</g>
<!-- ioctl&#45;&gt;epoll_wait -->
<g id="edge199" class="edge">
<title>ioctl&#45;&gt;epoll_wait</title>
<path fill="none" stroke="black" d="M1624.74,-1045.57C1533.18,-1037.58 1261.6,-1011.72 1175.05,-995 939.18,-949.43 878.79,-935.89 654.05,-851 569.45,-819.04 471.05,-852.44 471.05,-762 471.05,-762 471.05,-762 471.05,-688 471.05,-491.03 664.25,-525.82 848.05,-455 923.89,-425.78 1017.31,-412.39 1078.98,-406.45"/>
<polygon fill="black" stroke="black" points="1079.34,-409.93 1088.97,-405.52 1078.69,-402.96 1079.34,-409.93"/>
</g>
<!-- ioctl&#45;&gt;close -->
<g id="edge191" class="edge">
<title>ioctl&#45;&gt;close</title>
<path fill="none" stroke="black" d="M1624.49,-1047.82C1451.47,-1046.61 595.07,-1038.34 336.05,-995 200.14,-972.26 39.05,-1043.8 39.05,-906 39.05,-906 39.05,-906 39.05,-184 39.05,-101.46 122.38,-116.54 202.05,-95 383.34,-45.98 1765.32,-42.28 2033.2,-42.02"/>
<polygon fill="black" stroke="black" points="2033.34,-45.52 2043.33,-42.01 2033.33,-38.52 2033.34,-45.52"/>
</g>
<!-- ioctl&#45;&gt;read -->
<g id="edge197" class="edge">
<title>ioctl&#45;&gt;read</title>
<path fill="none" stroke="black" d="M1624.56,-1047.47C1530.21,-1045.34 1236.14,-1035.49 997.05,-995 716.36,-947.46 377.05,-1118.69 377.05,-834 377.05,-834 377.05,-834 377.05,-256 377.05,-170.72 464.61,-188.81 547.05,-167 694.01,-128.14 1805.12,-116.33 2036.12,-114.33"/>
<polygon fill="black" stroke="black" points="2036.17,-117.83 2046.14,-114.24 2036.11,-110.83 2036.17,-117.83"/>
</g>
<!-- ioctl&#45;&gt;sendmsg -->
<g id="edge194" class="edge">
<title>ioctl&#45;&gt;sendmsg</title>
<path fill="none" stroke="black" d="M1624.55,-1047.74C1448.84,-1046.08 569.73,-1035.81 457.05,-995 296.33,-936.79 151.05,-932.94 151.05,-762 151.05,-762 151.05,-762 151.05,-328 151.05,-215.15 548.57,-191.97 704.94,-187.22"/>
<polygon fill="black" stroke="black" points="705.43,-190.71 715.33,-186.92 705.23,-183.71 705.43,-190.71"/>
</g>
<!-- ioctl&#45;&gt;epoll_ctl -->
<g id="edge192" class="edge">
<title>ioctl&#45;&gt;epoll_ctl</title>
<path fill="none" stroke="black" d="M1684.78,-1044.26C1743.82,-1037.21 1879.05,-1020.34 1991.05,-995 2099.26,-970.52 2127.15,-964.44 2230.05,-923 2327.78,-883.65 2342.12,-851.19 2441.05,-815 2507.47,-790.71 2552.06,-834.38 2596.05,-779 2748.4,-587.21 2506.11,-450.88 2305.05,-311 2277.37,-291.74 2241.97,-278.8 2213.49,-270.52"/>
<polygon fill="black" stroke="black" points="2214.3,-267.12 2203.73,-267.79 2212.41,-273.86 2214.3,-267.12"/>
</g>
<!-- ioctl&#45;&gt;timerfd_settime -->
<g id="edge200" class="edge">
<title>ioctl&#45;&gt;timerfd_settime</title>
<path fill="none" stroke="black" d="M1639.55,-1033.41C1619.93,-1008.48 1590.05,-955.56 1590.05,-906 1590.05,-906 1590.05,-906 1590.05,-832 1590.05,-610.75 1666.33,-555.37 1805.05,-383 1814.66,-371.06 1827.46,-360.2 1839.94,-351.45"/>
<polygon fill="black" stroke="black" points="1842.1,-354.22 1848.48,-345.75 1838.22,-348.39 1842.1,-354.22"/>
</g>
<!-- ioctl&#45;&gt;write -->
<g id="edge189" class="edge">
<title>ioctl&#45;&gt;write</title>
<path fill="none" stroke="black" d="M1630.49,-1038.26C1592.06,-1019.9 1518.41,-977.09 1473.05,-923 1383.4,-816.08 1360.5,-773.98 1348.05,-635 1346.63,-619.06 1345.85,-614.85 1348.05,-599 1349.32,-589.88 1351.76,-580.12 1354.78,-571.49"/>
<polygon fill="black" stroke="black" points="1358.12,-572.58 1358.57,-561.99 1351.62,-569.98 1358.12,-572.58"/>
</g>
<!-- ioctl&#45;&gt;lseek -->
<g id="edge193" class="edge">
<title>ioctl&#45;&gt;lseek</title>
<path fill="none" stroke="black" d="M1654.07,-1030.99C1658.48,-983.38 1688.43,-845.57 1742.05,-743 1747.95,-731.72 1756.29,-720.41 1764.61,-711.15"/>
<polygon fill="black" stroke="black" points="1767.17,-713.54 1771.55,-703.89 1762.11,-708.7 1767.17,-713.54"/>
</g>
<!-- ioctl&#45;&gt;recvmsg -->
<g id="edge195" class="edge">
<title>ioctl&#45;&gt;recvmsg</title>
<path fill="none" stroke="black" d="M1685.69,-1047.23C1755.02,-1044.82 1919.89,-1034.99 1956.05,-995 2046.27,-895.23 2008.66,-713.45 1994.72,-645.02"/>
<polygon fill="black" stroke="black" points="1998.12,-644.15 1992.72,-635.04 1991.26,-645.53 1998.12,-644.15"/>
</g>
<!-- ioctl&#45;&gt;readlink -->
<g id="edge188" class="edge">
<title>ioctl&#45;&gt;readlink</title>
<path fill="none" stroke="black" d="M1625.41,-1044.18C1583.5,-1037.51 1506,-1021.82 1445.05,-995 1417.97,-983.08 1415.78,-971.7 1389.05,-959 1249.68,-892.74 1190.32,-932.14 1059.05,-851 1031.84,-834.18 1006.83,-807.27 992.19,-787.44"/>
<polygon fill="black" stroke="black" points="995,-785.35 986.4,-779.16 989.26,-789.36 995,-785.35"/>
</g>
<!-- ioctl&#45;&gt;statx -->
<g id="edge190" class="edge">
<title>ioctl&#45;&gt;statx</title>
<path fill="none" stroke="black" d="M1627.88,-1040.76C1598.25,-1031.26 1550.45,-1013.59 1511.05,-995 1498.46,-989.06 1428.13,-949.54 1387.9,-925.21"/>
<polygon fill="black" stroke="black" points="1389.68,-922.2 1379.33,-919.97 1386.03,-928.17 1389.68,-922.2"/>
</g>
<!-- ioctl&#45;&gt;openat -->
<g id="edge202" class="edge">
<title>ioctl&#45;&gt;openat</title>
<path fill="none" stroke="black" d="M1663.15,-1031.56C1686.69,-993.96 1753.42,-901.53 1788.42,-857.74"/>
<polygon fill="black" stroke="black" points="1791.2,-859.88 1794.78,-849.91 1785.76,-855.47 1791.2,-859.88"/>
</g>
<!-- ioctl&#45;&gt;fcntl -->
<g id="edge201" class="edge">
<title>ioctl&#45;&gt;fcntl</title>
<path fill="none" stroke="black" d="M1681.91,-1039.83C1729.76,-1026.63 1829.41,-1000.68 1884.88,-986.97"/>
<polygon fill="black" stroke="black" points="1885.82,-990.35 1894.7,-984.56 1884.15,-983.55 1885.82,-990.35"/>
</g>
<!-- epoll_wait&#45;&gt;clock_gettime -->
<g id="edge134" class="edge">
<title>epoll_wait&#45;&gt;clock_gettime</title>
<path fill="none" stroke="black" d="M1089.27,-405.9C1010.69,-411.95 863.65,-426.05 741.05,-455 503.04,-511.22 283.05,-515.44 283.05,-760 283.05,-978 283.05,-978 283.05,-978 283.05,-1087.69 2018.68,-1114.32 2426.18,-1119.1"/>
<polygon fill="black" stroke="black" points="2426.38,-1122.61 2436.42,-1119.22 2426.46,-1115.61 2426.38,-1122.61"/>
</g>
<!-- epoll_wait&#45;&gt;ioctl -->
<g id="edge140" class="edge">
<title>epoll_wait&#45;&gt;ioctl</title>
<path fill="none" stroke="black" d="M1090.04,-406.71C1032.56,-412.78 940.77,-426.21 866.05,-455 682.25,-525.82 489.05,-491.03 489.05,-688 489.05,-762 489.05,-762 489.05,-762 489.05,-852.44 587.45,-819.04 672.05,-851 896.79,-935.89 957.18,-949.43 1193.05,-995 1274.32,-1010.7 1518.71,-1034.45 1615.31,-1043.91"/>
<polygon fill="black" stroke="black" points="1614.97,-1047.39 1625.26,-1044.88 1615.65,-1040.43 1614.97,-1047.39"/>
</g>
<!-- epoll_wait&#45;&gt;epoll_wait -->
<g id="edge139" class="edge">
<title>epoll_wait&#45;&gt;epoll_wait</title>
<path fill="none" stroke="black" d="M1184.85,-414.17C1204,-415.8 1220.9,-411.41 1220.9,-401 1220.9,-392.46 1209.53,-387.98 1194.87,-387.54"/>
<polygon fill="black" stroke="black" points="1194.75,-384.04 1184.85,-387.83 1194.95,-391.03 1194.75,-384.04"/>
</g>
<!-- epoll_wait&#45;&gt;close -->
<g id="edge141" class="edge">
<title>epoll_wait&#45;&gt;close</title>
<path fill="none" stroke="black" d="M1089.92,-395.39C954.35,-381.17 621.57,-328.64 697.05,-167 718.15,-121.83 736.56,-112.98 783.05,-95 901.15,-49.32 1818.35,-42.98 2033.19,-42.13"/>
<polygon fill="black" stroke="black" points="2033.47,-45.63 2043.46,-42.09 2033.45,-38.63 2033.47,-45.63"/>
</g>
<!-- epoll_wait&#45;&gt;read -->
<g id="edge135" class="edge">
<title>epoll_wait&#45;&gt;read</title>
<path fill="none" stroke="black" d="M1141.46,-382.85C1139.63,-338.5 1154,-219.81 1226.05,-167 1291.44,-119.07 1872.93,-114.4 2035.87,-114.01"/>
<polygon fill="black" stroke="black" points="2035.99,-117.51 2045.98,-114 2035.98,-110.51 2035.99,-117.51"/>
</g>
<!-- epoll_wait&#45;&gt;sendmsg -->
<g id="edge137" class="edge">
<title>epoll_wait&#45;&gt;sendmsg</title>
<path fill="none" stroke="black" d="M1099.87,-389.7C1037.23,-372.81 923.05,-335.01 842.05,-275 817.33,-256.68 793.7,-230.61 779.46,-211.42"/>
<polygon fill="black" stroke="black" points="782.24,-209.28 773.61,-203.13 776.52,-213.32 782.24,-209.28"/>
</g>
<!-- epoll_wait&#45;&gt;epoll_ctl -->
<g id="edge148" class="edge">
<title>epoll_wait&#45;&gt;epoll_ctl</title>
<path fill="none" stroke="black" d="M1193.57,-391.02C1291.27,-374.21 1518.23,-337.29 1710.05,-311 1852.09,-291.54 2020.2,-272.63 2106.62,-263.57"/>
<polygon fill="black" stroke="black" points="2107.16,-267.03 2116.75,-262.51 2106.44,-260.07 2107.16,-267.03"/>
</g>
<!-- epoll_wait&#45;&gt;timerfd_settime -->
<g id="edge138" class="edge">
<title>epoll_wait&#45;&gt;timerfd_settime</title>
<path fill="none" stroke="black" d="M1199.04,-394.51C1325.41,-382.16 1641.04,-352.16 1794.97,-337.85"/>
<polygon fill="black" stroke="black" points="1795.68,-341.3 1805.32,-336.89 1795.04,-334.33 1795.68,-341.3"/>
</g>
<!-- epoll_wait&#45;&gt;write -->
<g id="edge144" class="edge">
<title>epoll_wait&#45;&gt;write</title>
<path fill="none" stroke="black" d="M1149.48,-419.13C1150.77,-439.03 1151.94,-471.61 1170.05,-491 1191.69,-514.16 1275.62,-529.73 1328.35,-537.71"/>
<polygon fill="black" stroke="black" points="1328.05,-541.2 1338.46,-539.2 1329.08,-534.28 1328.05,-541.2"/>
</g>
<!-- epoll_wait&#45;&gt;lseek -->
<g id="edge142" class="edge">
<title>epoll_wait&#45;&gt;lseek</title>
<path fill="none" stroke="black" d="M1180.81,-415.24C1224.2,-433.14 1299.11,-465.73 1364.05,-491 1497.68,-543 1539.93,-534.63 1668.05,-599 1706.03,-618.08 1746.11,-646.13 1770.3,-665.63"/>
<polygon fill="black" stroke="black" points="1768.23,-668.45 1778.16,-672.13 1772.69,-663.06 1768.23,-668.45"/>
</g>
<!-- epoll_wait&#45;&gt;recvmsg -->
<g id="edge146" class="edge">
<title>epoll_wait&#45;&gt;recvmsg</title>
<path fill="none" stroke="black" d="M1189.69,-412.5C1334.85,-448.02 1792.24,-563.7 1942.65,-602.88"/>
<polygon fill="black" stroke="black" points="1941.97,-606.32 1952.53,-605.46 1943.74,-599.55 1941.97,-606.32"/>
</g>
<!-- epoll_wait&#45;&gt;readlink -->
<g id="edge136" class="edge">
<title>epoll_wait&#45;&gt;readlink</title>
<path fill="none" stroke="black" d="M1095.52,-410.41C1048.47,-419.01 982.88,-434.07 967.05,-455 908.49,-532.47 991.26,-574.28 1000.05,-671 1001.5,-686.93 1001.69,-691.08 1000.05,-707 999.15,-715.77 997.43,-725.24 995.18,-733.7"/>
<polygon fill="black" stroke="black" points="991.78,-732.84 992.17,-743.43 998.47,-734.91 991.78,-732.84"/>
</g>
<!-- epoll_wait&#45;&gt;statx -->
<g id="edge145" class="edge">
<title>epoll_wait&#45;&gt;statx</title>
<path fill="none" stroke="black" d="M1093.23,-409.06C1040.43,-417 963.95,-431.89 945.05,-455 763.59,-676.88 907.18,-743.6 931.05,-779 954.91,-814.38 982.09,-795.53 1020.05,-815 1046.72,-828.67 1049.13,-840.12 1077.05,-851 1157.96,-882.51 1258.87,-895.5 1315.83,-900.7"/>
<polygon fill="black" stroke="black" points="1315.67,-904.2 1325.94,-901.58 1316.28,-897.23 1315.67,-904.2"/>
</g>
<!-- epoll_wait&#45;&gt;openat -->
<g id="edge143" class="edge">
<title>epoll_wait&#45;&gt;openat</title>
<path fill="none" stroke="black" d="M1145.92,-419.21C1143.15,-438.03 1138.01,-468.5 1150.05,-491 1204.5,-592.73 1264.75,-579.78 1366.05,-635 1510.66,-713.83 1693.22,-785.25 1771.63,-816.01"/>
<polygon fill="black" stroke="black" points="1770.52,-819.34 1781.11,-819.74 1773.08,-812.82 1770.52,-819.34"/>
</g>
<!-- epoll_wait&#45;&gt;futex -->
<g id="edge147" class="edge">
<title>epoll_wait&#45;&gt;futex</title>
<path fill="none" stroke="black" d="M1119.42,-417.22C1096.43,-429.1 1062.66,-445.51 1036.99,-457.26"/>
<polygon fill="black" stroke="black" points="1035.26,-454.21 1027.59,-461.52 1038.15,-460.58 1035.26,-454.21"/>
</g>
<!-- close&#45;&gt;clock_gettime -->
<g id="edge12" class="edge">
<title>close&#45;&gt;clock_gettime</title>
<path fill="none" stroke="black" d="M2112.57,-42.96C2292.86,-48.57 3117.05,-80.66 3117.05,-184 3117.05,-978 3117.05,-978 3117.05,-978 3117.05,-1083.2 2761.76,-1110.6 2595.22,-1117.62"/>
<polygon fill="black" stroke="black" points="2594.87,-1114.14 2585.02,-1118.04 2595.15,-1121.13 2594.87,-1114.14"/>
</g>
<!-- close&#45;&gt;ioctl -->
<g id="edge18" class="edge">
<title>close&#45;&gt;ioctl</title>
<path fill="none" stroke="black" d="M2043.34,-42.01C1803.91,-42.23 402.68,-45.62 220.05,-95 140.38,-116.54 57.05,-101.46 57.05,-184 57.05,-906 57.05,-906 57.05,-906 57.05,-1043.8 218.14,-972.26 354.05,-995 605.78,-1037.12 1421.77,-1046.12 1614.19,-1047.7"/>
<polygon fill="black" stroke="black" points="1614.4,-1051.2 1624.43,-1047.78 1614.46,-1044.2 1614.4,-1051.2"/>
</g>
<!-- close&#45;&gt;epoll_wait -->
<g id="edge16" class="edge">
<title>close&#45;&gt;epoll_wait</title>
<path fill="none" stroke="black" d="M2043.44,-42.11C1851.18,-42.88 920.1,-48.95 801.05,-95 754.56,-112.98 736.15,-121.83 715.05,-167 642.84,-321.64 944.3,-376.41 1080.95,-393.33"/>
<polygon fill="black" stroke="black" points="1080.55,-396.8 1090.89,-394.53 1081.39,-389.85 1080.55,-396.8"/>
</g>
<!-- close&#45;&gt;close -->
<g id="edge15" class="edge">
<title>close&#45;&gt;close</title>
<path fill="none" stroke="black" d="M2102.6,-53.71C2117.01,-56.42 2130.5,-52.18 2130.5,-41 2130.5,-32.53 2122.76,-28.04 2112.73,-27.55"/>
<polygon fill="black" stroke="black" points="2112.32,-24.07 2102.6,-28.29 2112.83,-31.05 2112.32,-24.07"/>
</g>
<!-- close&#45;&gt;read -->
<g id="edge5" class="edge">
<title>close&#45;&gt;read</title>
<path fill="none" stroke="black" d="M2083.92,-58.79C2084.75,-66.59 2085,-76.07 2084.65,-84.85"/>
<polygon fill="black" stroke="black" points="2081.14,-84.83 2083.93,-95.05 2088.13,-85.33 2081.14,-84.83"/>
</g>
<!-- close&#45;&gt;sendmsg -->
<g id="edge6" class="edge">
<title>close&#45;&gt;sendmsg</title>
<path fill="none" stroke="black" d="M2043.39,-41.71C1853.36,-40.35 942.53,-36.94 833.05,-95 807.56,-108.52 789.28,-136.76 778.51,-157.82"/>
<polygon fill="black" stroke="black" points="775.32,-156.39 774.1,-166.92 781.61,-159.45 775.32,-156.39"/>
</g>
<!-- close&#45;&gt;epoll_ctl -->
<g id="edge7" class="edge">
<title>close&#45;&gt;epoll_ctl</title>
<path fill="none" stroke="black" d="M2111.51,-46.08C2161.11,-53.42 2249.65,-70.43 2268.05,-95 2296.83,-133.42 2292.36,-161.61 2268.05,-203 2256.66,-222.4 2235.3,-235.22 2214.81,-243.39"/>
<polygon fill="black" stroke="black" points="2213.36,-240.19 2205.18,-246.92 2215.77,-246.76 2213.36,-240.19"/>
</g>
<!-- close&#45;&gt;timerfd_settime -->
<g id="edge8" class="edge">
<title>close&#45;&gt;timerfd_settime</title>
<path fill="none" stroke="black" d="M2103.9,-52.94C2154.83,-78.42 2258.76,-144.05 2217.05,-203 2189.29,-242.24 2160.07,-222.12 2115.05,-239 2052.55,-262.44 1980.97,-291.22 1933.72,-309.59"/>
<polygon fill="black" stroke="black" points="1932.37,-306.36 1924.31,-313.23 1934.9,-312.88 1932.37,-306.36"/>
</g>
<!-- close&#45;&gt;write -->
<g id="edge9" class="edge">
<title>close&#45;&gt;write</title>
<path fill="none" stroke="black" d="M2043.41,-41.68C1902.95,-41.32 1379.69,-48.45 1278.05,-167 1231.56,-221.23 1331.22,-441.27 1363.06,-517.69"/>
<polygon fill="black" stroke="black" points="1359.89,-519.17 1366.92,-527.09 1366.36,-516.51 1359.89,-519.17"/>
</g>
<!-- close&#45;&gt;lseek -->
<g id="edge10" class="edge">
<title>close&#45;&gt;lseek</title>
<path fill="none" stroke="black" d="M2112,-44.39C2261.79,-55.84 2855.05,-107.73 2855.05,-184 2855.05,-258 2855.05,-258 2855.05,-258 2855.05,-351.57 2191.77,-608.42 2102.05,-635 2009.71,-662.35 1897.01,-677.56 1836.02,-684.1"/>
<polygon fill="black" stroke="black" points="1835.56,-680.63 1825.97,-685.14 1836.28,-687.59 1835.56,-680.63"/>
</g>
<!-- close&#45;&gt;recvmsg -->
<g id="edge11" class="edge">
<title>close&#45;&gt;recvmsg</title>
<path fill="none" stroke="black" d="M2112.21,-43.69C2229.84,-50.45 2611.05,-80.34 2611.05,-184 2611.05,-330 2611.05,-330 2611.05,-330 2611.05,-383.19 2575.12,-389.22 2531.05,-419 2446.69,-476 2153.73,-567.3 2038.31,-602"/>
<polygon fill="black" stroke="black" points="2037.26,-598.66 2028.68,-604.89 2039.27,-605.37 2037.26,-598.66"/>
</g>
<!-- close&#45;&gt;readlink -->
<g id="edge13" class="edge">
<title>close&#45;&gt;readlink</title>
<path fill="none" stroke="black" d="M2043.74,-42.66C1860.75,-46.17 999.46,-63.61 734.05,-95 39.77,-177.13 339.05,-148.35 339.05,-184 339.05,-402 339.05,-402 339.05,-402 339.05,-539.43 790.5,-696.44 935.73,-744.94"/>
<polygon fill="black" stroke="black" points="934.65,-748.27 945.24,-748.11 936.86,-741.63 934.65,-748.27"/>
</g>
<!-- close&#45;&gt;statx -->
<g id="edge14" class="edge">
<title>close&#45;&gt;statx</title>
<path fill="none" stroke="black" d="M2043.69,-42.47C1822.73,-45.48 607.26,-62.95 445.05,-95 334.26,-116.89 207.05,-71.07 207.05,-184 207.05,-474 207.05,-474 207.05,-474 207.05,-796.12 511.22,-782.88 826.05,-851 1005.01,-889.72 1223.3,-900.18 1315.62,-902.99"/>
<polygon fill="black" stroke="black" points="1315.63,-906.49 1325.72,-903.28 1315.83,-899.49 1315.63,-906.49"/>
</g>
<!-- close&#45;&gt;openat -->
<g id="edge17" class="edge">
<title>close&#45;&gt;openat</title>
<path fill="none" stroke="black" d="M2112.5,-41.79C2206.36,-41.78 2472.95,-46.16 2687.05,-95 2775.5,-115.18 2826.44,-92.39 2878.05,-167 2905.37,-206.49 2893.05,-230.48 2875.05,-275 2797.57,-466.68 2287.82,-709.65 2093.05,-779 2015.12,-806.75 1919.25,-821.06 1861.38,-827.51"/>
<polygon fill="black" stroke="black" points="1860.94,-824.04 1851.37,-828.59 1861.69,-831 1860.94,-824.04"/>
</g>
<!-- read&#45;&gt;mprotect -->
<g id="edge162" class="edge">
<title>read&#45;&gt;mprotect</title>
<path fill="none" stroke="black" d="M2110.13,-114.92C2252.1,-119.13 2820.25,-137.68 2894.05,-167 2989.87,-205.06 3061.05,-224.9 3061.05,-328 3061.05,-762 3061.05,-762 3061.05,-762 3061.05,-949.74 2865.66,-1113.25 2788.69,-1170.38"/>
<polygon fill="black" stroke="black" points="2786.33,-1167.77 2780.33,-1176.5 2790.47,-1173.41 2786.33,-1167.77"/>
</g>
<!-- read&#45;&gt;clock_gettime -->
<g id="edge172" class="edge">
<title>read&#45;&gt;clock_gettime</title>
<path fill="none" stroke="black" d="M2110.24,-114.29C2235.02,-115.77 2685.41,-124.12 2820.05,-167 2892.83,-190.17 2967.05,-179.63 2967.05,-256 2967.05,-978 2967.05,-978 2967.05,-978 2967.05,-1055.57 2719.44,-1096.34 2589.08,-1112.11"/>
<polygon fill="black" stroke="black" points="2588.66,-1108.64 2579.14,-1113.29 2589.49,-1115.59 2588.66,-1108.64"/>
</g>
<!-- read&#45;&gt;ioctl -->
<g id="edge164" class="edge">
<title>read&#45;&gt;ioctl</title>
<path fill="none" stroke="black" d="M2045.98,-114.28C1840.42,-116.15 713.15,-127.83 565.05,-167 482.61,-188.81 395.05,-170.72 395.05,-256 395.05,-834 395.05,-834 395.05,-834 395.05,-1118.69 734.36,-947.46 1015.05,-995 1239.51,-1033.01 1512.42,-1044.02 1614.29,-1046.98"/>
<polygon fill="black" stroke="black" points="1614.36,-1050.49 1624.46,-1047.27 1614.56,-1043.49 1614.36,-1050.49"/>
</g>
<!-- read&#45;&gt;epoll_wait -->
<g id="edge161" class="edge">
<title>read&#45;&gt;epoll_wait</title>
<path fill="none" stroke="black" d="M2045.98,-114.01C1900.73,-114.32 1309.99,-118.67 1244.05,-167 1176.93,-216.2 1159.87,-322.58 1151.74,-372.76"/>
<polygon fill="black" stroke="black" points="1148.25,-372.41 1150.08,-382.85 1155.16,-373.55 1148.25,-372.41"/>
</g>
<!-- read&#45;&gt;close -->
<g id="edge165" class="edge">
<title>read&#45;&gt;close</title>
<path fill="none" stroke="black" d="M2072.18,-95.05C2071.35,-87.23 2071.11,-77.75 2071.46,-68.98"/>
<polygon fill="black" stroke="black" points="2074.97,-69.01 2072.19,-58.79 2067.99,-68.51 2074.97,-69.01"/>
</g>
<!-- read&#45;&gt;read -->
<g id="edge166" class="edge">
<title>read&#45;&gt;read</title>
<path fill="none" stroke="black" d="M2100.87,-125.6C2114.76,-128.52 2127.9,-124.32 2127.9,-113 2127.9,-104.51 2120.51,-100.02 2110.95,-99.54"/>
<polygon fill="black" stroke="black" points="2110.54,-96.07 2100.87,-100.4 2111.13,-103.04 2110.54,-96.07"/>
</g>
<!-- read&#45;&gt;sendmsg -->
<g id="edge170" class="edge">
<title>read&#45;&gt;sendmsg</title>
<path fill="none" stroke="black" d="M2046.17,-114.36C1908.5,-116.09 1352.79,-125.28 898.05,-167 874.03,-169.2 847.49,-172.77 824.55,-176.06"/>
<polygon fill="black" stroke="black" points="824.01,-172.6 814.62,-177.5 825.01,-179.53 824.01,-172.6"/>
</g>
<!-- read&#45;&gt;epoll_ctl -->
<g id="edge160" class="edge">
<title>read&#45;&gt;epoll_ctl</title>
<path fill="none" stroke="black" d="M2087.08,-130.52C2093.03,-149.27 2100.51,-180.19 2115.05,-203 2122.16,-214.14 2132.19,-224.44 2141.43,-232.94"/>
<polygon fill="black" stroke="black" points="2139.14,-235.58 2148.93,-239.63 2143.8,-230.36 2139.14,-235.58"/>
</g>
<!-- read&#45;&gt;timerfd_settime -->
<g id="edge168" class="edge">
<title>read&#45;&gt;timerfd_settime</title>
<path fill="none" stroke="black" d="M2060.23,-127.96C2045.2,-137.64 2024.11,-151.53 2008.05,-167 1964.42,-209.03 1925.67,-269.01 1902.7,-302.63"/>
<polygon fill="black" stroke="black" points="1899.73,-300.77 1896.92,-310.99 1905.49,-304.75 1899.73,-300.77"/>
</g>
<!-- read&#45;&gt;write -->
<g id="edge159" class="edge">
<title>read&#45;&gt;write</title>
<path fill="none" stroke="black" d="M2046.2,-113.68C1911.79,-113.32 1399.05,-121.23 1399.05,-256 1399.05,-402 1399.05,-402 1399.05,-402 1399.05,-442.54 1391.74,-489.09 1384.11,-517.51"/>
<polygon fill="black" stroke="black" points="1380.64,-516.89 1381.18,-527.47 1387.36,-518.86 1380.64,-516.89"/>
</g>
<!-- read&#45;&gt;lseek -->
<g id="edge175" class="edge">
<title>read&#45;&gt;lseek</title>
<path fill="none" stroke="black" d="M2047.7,-118.9C1956.95,-133.47 1695.05,-180.27 1695.05,-256 1695.05,-330 1695.05,-330 1695.05,-330 1695.05,-458.72 1758.83,-603.15 1783.25,-661.47"/>
<polygon fill="black" stroke="black" points="1780.14,-663.12 1787.2,-671.02 1786.61,-660.45 1780.14,-663.12"/>
</g>
<!-- read&#45;&gt;recvmsg -->
<g id="edge163" class="edge">
<title>read&#45;&gt;recvmsg</title>
<path fill="none" stroke="black" d="M2072.27,-131.07C2059.05,-156.91 2031.05,-208.03 2031.05,-256 2031.05,-402 2031.05,-402 2031.05,-402 2031.05,-470.21 2015.44,-549.39 2003.16,-589.61"/>
<polygon fill="black" stroke="black" points="1999.8,-588.61 2000.04,-599.2 2006.46,-590.77 1999.8,-588.61"/>
</g>
<!-- read&#45;&gt;readlink -->
<g id="edge171" class="edge">
<title>read&#45;&gt;readlink</title>
<path fill="none" stroke="black" d="M2045.85,-114.56C1897.39,-117.23 1284.19,-130.08 1207.05,-167 1050.97,-241.7 1007.48,-293.61 945.05,-455 907.34,-552.5 952.84,-678.86 972.48,-733.21"/>
<polygon fill="black" stroke="black" points="969.25,-734.57 975.93,-742.8 975.84,-732.2 969.25,-734.57"/>
</g>
<!-- read&#45;&gt;statx -->
<g id="edge173" class="edge">
<title>read&#45;&gt;statx</title>
<path fill="none" stroke="black" d="M2045.99,-114.42C1852.69,-117 847.71,-131.65 715.05,-167 632.65,-188.96 545.05,-170.72 545.05,-256 545.05,-546 545.05,-546 545.05,-546 545.05,-671.44 899.65,-815.8 1020.05,-851 1123.91,-881.37 1250.51,-895.06 1316.13,-900.63"/>
<polygon fill="black" stroke="black" points="1315.88,-904.12 1326.13,-901.45 1316.45,-897.14 1315.88,-904.12"/>
</g>
<!-- read&#45;&gt;openat -->
<g id="edge167" class="edge">
<title>read&#45;&gt;openat</title>
<path fill="none" stroke="black" d="M2108.78,-118.22C2140.02,-124.33 2187.39,-138.25 2217.05,-167 2344.31,-290.36 2323.64,-396.08 2264.05,-563 2216.47,-696.3 2160.8,-724.81 2030.05,-779 1968.31,-804.59 1948.83,-798.54 1884.05,-815 1875.43,-817.19 1866.17,-819.59 1857.19,-821.87"/>
<polygon fill="black" stroke="black" points="1856.05,-818.55 1847.21,-824.38 1857.76,-825.33 1856.05,-818.55"/>
</g>
<!-- read&#45;&gt;fcntl -->
<g id="edge174" class="edge">
<title>read&#45;&gt;fcntl</title>
<path fill="none" stroke="black" d="M2109.17,-116.85C2147.29,-121.87 2211.65,-134.99 2256.05,-167 2468.81,-320.37 2524.39,-446.48 2494.05,-707 2490.25,-739.66 2499.73,-755.19 2477.05,-779 2457.12,-799.93 2254.95,-843.42 2227.05,-851 2164.64,-867.95 2145.02,-860.43 2086.05,-887 2060.09,-898.7 2057.45,-908.31 2033.05,-923 2009.3,-937.3 1981.35,-951.94 1959.54,-962.2"/>
<polygon fill="black" stroke="black" points="1957.91,-959.09 1950.29,-966.45 1960.84,-965.45 1957.91,-959.09"/>
</g>
<!-- read&#45;&gt;futex -->
<g id="edge169" class="edge">
<title>read&#45;&gt;futex</title>
<path fill="none" stroke="black" d="M2046.15,-114.01C1925.03,-114.39 1494.03,-119.16 1367.05,-167 1305.58,-190.16 1249.05,-190.31 1249.05,-256 1249.05,-330 1249.05,-330 1249.05,-330 1249.05,-370.45 1258.41,-390.16 1230.05,-419 1204.62,-444.87 1104.03,-460.38 1044.96,-467.43"/>
<polygon fill="black" stroke="black" points="1044.33,-463.98 1034.8,-468.61 1045.13,-470.93 1044.33,-463.98"/>
</g>
<!-- sendmsg&#45;&gt;clock_gettime -->
<g id="edge156" class="edge">
<title>sendmsg&#45;&gt;clock_gettime</title>
<path fill="none" stroke="black" d="M714.95,-186.25C592.42,-187.59 289.99,-195.4 199.05,-239 149.45,-262.78 113.05,-272.99 113.05,-328 113.05,-618 113.05,-618 113.05,-618 113.05,-742.6 51.79,-763.66 34.05,-887 27.22,-934.51 2.99,-958.4 34.05,-995 161.43,-1145.08 275.09,-1048.41 471.05,-1067 860.36,-1103.93 2091.49,-1116.51 2426.32,-1119.34"/>
<polygon fill="black" stroke="black" points="2426.41,-1122.84 2436.44,-1119.42 2426.47,-1115.84 2426.41,-1122.84"/>
</g>
<!-- sendmsg&#45;&gt;epoll_wait -->
<g id="edge155" class="edge">
<title>sendmsg&#45;&gt;epoll_wait</title>
<path fill="none" stroke="black" d="M785.66,-202.1C803.51,-221.31 831.03,-253.5 860.05,-275 934.14,-329.89 1035.99,-366.2 1095.83,-384.92"/>
<polygon fill="black" stroke="black" points="1094.84,-388.27 1105.43,-387.88 1096.9,-381.59 1094.84,-388.27"/>
</g>
<!-- sendmsg&#45;&gt;read -->
<g id="edge149" class="edge">
<title>sendmsg&#45;&gt;read</title>
<path fill="none" stroke="black" d="M811.43,-175.55C832.22,-172.4 857.27,-169.09 880.05,-167 1331.12,-125.61 1881.52,-116.24 2036.05,-114.4"/>
<polygon fill="black" stroke="black" points="2036.11,-117.9 2046.07,-114.29 2036.03,-110.9 2036.11,-117.9"/>
</g>
<!-- sendmsg&#45;&gt;epoll_ctl -->
<g id="edge158" class="edge">
<title>sendmsg&#45;&gt;epoll_ctl</title>
<path fill="none" stroke="black" d="M818.29,-188.43C1034.95,-199.02 1874.66,-241.09 2105.23,-252.9"/>
<polygon fill="black" stroke="black" points="2105.26,-256.41 2115.43,-253.43 2105.62,-249.42 2105.26,-256.41"/>
</g>
<!-- sendmsg&#45;&gt;timerfd_settime -->
<g id="edge154" class="edge">
<title>sendmsg&#45;&gt;timerfd_settime</title>
<path fill="none" stroke="black" d="M815.29,-191.78C989.21,-213.31 1584.74,-289.11 1801.98,-317.32"/>
<polygon fill="black" stroke="black" points="1801.67,-320.81 1812.03,-318.63 1802.57,-313.87 1801.67,-320.81"/>
</g>
<!-- sendmsg&#45;&gt;write -->
<g id="edge152" class="edge">
<title>sendmsg&#45;&gt;write</title>
<path fill="none" stroke="black" d="M802.24,-198.27C897.59,-231.93 1158.55,-326.96 1230.05,-383 1277.28,-420.01 1270.18,-447.08 1311.05,-491 1321.67,-502.4 1334.55,-513.89 1345.74,-523.24"/>
<polygon fill="black" stroke="black" points="1343.58,-525.99 1353.53,-529.63 1348.02,-520.58 1343.58,-525.99"/>
</g>
<!-- sendmsg&#45;&gt;readlink -->
<g id="edge153" class="edge">
<title>sendmsg&#45;&gt;readlink</title>
<path fill="none" stroke="black" d="M755.75,-202.61C735.1,-227.46 695.05,-276.91 695.05,-328 695.05,-402 695.05,-402 695.05,-402 695.05,-563.14 875.14,-691.33 949.11,-739.45"/>
<polygon fill="black" stroke="black" points="947.28,-742.44 957.58,-744.92 951.08,-736.56 947.28,-742.44"/>
</g>
<!-- sendmsg&#45;&gt;statx -->
<g id="edge157" class="edge">
<title>sendmsg&#45;&gt;statx</title>
<path fill="none" stroke="black" d="M733.95,-199.11C713.51,-208.27 687.55,-221.9 668.05,-239 579.22,-316.91 549.24,-342.52 513.05,-455 478.37,-562.83 466.31,-631.85 551.05,-707 623.93,-771.63 870.01,-829.66 965.05,-851 1090.69,-879.21 1242.4,-894.42 1315.89,-900.61"/>
<polygon fill="black" stroke="black" points="1315.89,-904.13 1326.15,-901.46 1316.47,-897.15 1315.89,-904.13"/>
</g>
<!-- sendmsg&#45;&gt;openat -->
<g id="edge151" class="edge">
<title>sendmsg&#45;&gt;openat</title>
<path fill="none" stroke="black" d="M741.18,-200.79C726.46,-210.23 708.53,-223.57 696.05,-239 664.51,-278.04 658.58,-297.01 663.05,-347 683.02,-569.97 716.66,-689.97 922.05,-779 998.6,-812.18 1578.53,-827.11 1757.57,-830.96"/>
<polygon fill="black" stroke="black" points="1757.71,-834.46 1767.79,-831.17 1757.86,-827.46 1757.71,-834.46"/>
</g>
<!-- sendmsg&#45;&gt;fcntl -->
<g id="edge150" class="edge">
<title>sendmsg&#45;&gt;fcntl</title>
<path fill="none" stroke="black" d="M725.51,-195.99C695.84,-204.4 655.9,-218.38 625.05,-239 496.75,-324.77 471.59,-378.09 431.05,-527 395.24,-658.57 487,-712.52 606.05,-779 767.01,-868.88 814.59,-885.33 995.05,-923 1168,-959.1 1723.57,-972.2 1881.7,-975.25"/>
<polygon fill="black" stroke="black" points="1881.9,-978.76 1891.96,-975.45 1882.03,-971.76 1881.9,-978.76"/>
</g>
<!-- epoll_ctl&#45;&gt;mprotect -->
<g id="edge132" class="edge">
<title>epoll_ctl&#45;&gt;mprotect</title>
<path fill="none" stroke="black" d="M2212.64,-260.33C2369.93,-270.7 2855.05,-326.19 2855.05,-616 2855.05,-762 2855.05,-762 2855.05,-762 2855.05,-898.66 2838.67,-932.23 2816.05,-1067 2810.64,-1099.24 2815.08,-1109.48 2801.05,-1139 2796.12,-1149.38 2788.75,-1159.5 2781.5,-1168.08"/>
<polygon fill="black" stroke="black" points="2778.69,-1165.97 2774.67,-1175.77 2783.93,-1170.62 2778.69,-1165.97"/>
</g>
<!-- epoll_ctl&#45;&gt;clock_gettime -->
<g id="edge124" class="edge">
<title>epoll_ctl&#45;&gt;clock_gettime</title>
<path fill="none" stroke="black" d="M2209.28,-264.3C2252.5,-271.89 2318.36,-286.75 2371.05,-311 2576.72,-405.65 2779.05,-389.6 2779.05,-616 2779.05,-978 2779.05,-978 2779.05,-978 2779.05,-1063.94 2668.07,-1098.21 2588.87,-1111.64"/>
<polygon fill="black" stroke="black" points="2588.21,-1108.2 2578.9,-1113.25 2589.33,-1115.11 2588.21,-1108.2"/>
</g>
<!-- epoll_ctl&#45;&gt;ioctl -->
<g id="edge118" class="edge">
<title>epoll_ctl&#45;&gt;ioctl</title>
<path fill="none" stroke="black" d="M2208.26,-265.26C2242.17,-272.84 2288.59,-287.02 2323.05,-311 2524.11,-450.88 2766.4,-587.21 2614.05,-779 2570.06,-834.38 2525.47,-790.71 2459.05,-815 2360.12,-851.19 2345.78,-883.65 2248.05,-923 2145.15,-964.44 2117.26,-970.52 2009.05,-995 1896.85,-1020.39 1761.33,-1037.27 1695.12,-1044.3"/>
<polygon fill="black" stroke="black" points="1694.68,-1040.82 1685.1,-1045.34 1695.41,-1047.79 1694.68,-1040.82"/>
</g>
<!-- epoll_ctl&#45;&gt;epoll_wait -->
<g id="edge130" class="edge">
<title>epoll_ctl&#45;&gt;epoll_wait</title>
<path fill="none" stroke="black" d="M2117.89,-263.57C2038.18,-272.64 1870.08,-291.54 1728.05,-311 1537.38,-337.13 1312,-373.76 1205.89,-390.72"/>
<polygon fill="black" stroke="black" points="1205.33,-387.26 1196,-392.29 1206.43,-394.18 1205.33,-387.26"/>
</g>
<!-- epoll_ctl&#45;&gt;close -->
<g id="edge119" class="edge">
<title>epoll_ctl&#45;&gt;close</title>
<path fill="none" stroke="black" d="M2197.74,-243.77C2216.63,-235.62 2238.48,-222.71 2250.05,-203 2274.36,-161.61 2278.83,-133.42 2250.05,-95 2234.13,-73.74 2165.7,-58.14 2120,-49.57"/>
<polygon fill="black" stroke="black" points="2120.52,-46.1 2110.05,-47.74 2119.25,-52.99 2120.52,-46.1"/>
</g>
<!-- epoll_ctl&#45;&gt;read -->
<g id="edge123" class="edge">
<title>epoll_ctl&#45;&gt;read</title>
<path fill="none" stroke="black" d="M2136.39,-242.08C2122.54,-232.42 2106.95,-218.53 2097.05,-203 2085.04,-184.16 2077.85,-159.79 2075.17,-141.31"/>
<polygon fill="black" stroke="black" points="2078.63,-140.78 2074.12,-131.2 2071.67,-141.51 2078.63,-140.78"/>
</g>
<!-- epoll_ctl&#45;&gt;sendmsg -->
<g id="edge127" class="edge">
<title>epoll_ctl&#45;&gt;sendmsg</title>
<path fill="none" stroke="black" d="M2115.35,-253.69C1903.56,-243.35 1063.41,-201.26 828.38,-189.23"/>
<polygon fill="black" stroke="black" points="828.47,-185.73 818.31,-188.71 828.12,-192.72 828.47,-185.73"/>
</g>
<!-- epoll_ctl&#45;&gt;epoll_ctl -->
<g id="edge117" class="edge">
<title>epoll_ctl&#45;&gt;epoll_ctl</title>
<path fill="none" stroke="black" d="M2198.38,-270.06C2215.82,-271.97 2231.45,-267.62 2231.45,-257 2231.45,-248.54 2221.52,-244.06 2208.67,-243.55"/>
<polygon fill="black" stroke="black" points="2208.25,-240.06 2198.38,-243.94 2208.51,-247.06 2208.25,-240.06"/>
</g>
<!-- epoll_ctl&#45;&gt;timerfd_settime -->
<g id="edge125" class="edge">
<title>epoll_ctl&#45;&gt;timerfd_settime</title>
<path fill="none" stroke="black" d="M2129.27,-269.95C2122.9,-271.67 2116.31,-273.4 2110.05,-275 2056.92,-288.6 1996.29,-303.2 1950.84,-313.63"/>
<polygon fill="black" stroke="black" points="1950.06,-310.21 1941.09,-315.85 1951.62,-317.04 1950.06,-310.21"/>
</g>
<!-- epoll_ctl&#45;&gt;write -->
<g id="edge120" class="edge">
<title>epoll_ctl&#45;&gt;write</title>
<path fill="none" stroke="black" d="M2115.22,-260.02C2013.44,-266 1774.14,-289.66 1600.05,-383 1522.63,-424.51 1441.99,-490.8 1400.3,-523.87"/>
<polygon fill="black" stroke="black" points="1397.94,-521.27 1392.25,-530.21 1402.27,-526.77 1397.94,-521.27"/>
</g>
<!-- epoll_ctl&#45;&gt;lseek -->
<g id="edge133" class="edge">
<title>epoll_ctl&#45;&gt;lseek</title>
<path fill="none" stroke="black" d="M2163.75,-275.24C2158.22,-301.72 2143.05,-354.14 2143.05,-400 2143.05,-474 2143.05,-474 2143.05,-474 2143.05,-554.71 2123.9,-586.95 2059.05,-635 1989.29,-686.68 1951.81,-652.16 1867.05,-671 1856.18,-673.42 1844.37,-676.36 1833.34,-679.11"/>
<polygon fill="black" stroke="black" points="1832.34,-675.75 1823.48,-681.56 1834.03,-682.54 1832.34,-675.75"/>
</g>
<!-- epoll_ctl&#45;&gt;recvmsg -->
<g id="edge126" class="edge">
<title>epoll_ctl&#45;&gt;recvmsg</title>
<path fill="none" stroke="black" d="M2151.69,-274.43C2141.86,-284.13 2128.88,-297.18 2120.05,-311 2074.19,-382.81 2085.63,-411.86 2054.05,-491 2040.15,-525.85 2022.73,-565.54 2009.35,-590.67"/>
<polygon fill="black" stroke="black" points="2006.22,-589.1 2004.44,-599.54 2012.34,-592.49 2006.22,-589.1"/>
</g>
<!-- epoll_ctl&#45;&gt;readlink -->
<g id="edge122" class="edge">
<title>epoll_ctl&#45;&gt;readlink</title>
<path fill="none" stroke="black" d="M2174.9,-274.87C2185.77,-301.28 2199.05,-354.14 2199.05,-400 2199.05,-474 2199.05,-474 2199.05,-474 2199.05,-557.54 2170.56,-587.19 2102.05,-635 1928.4,-756.21 1244.47,-761.65 1038.8,-760.58"/>
<polygon fill="black" stroke="black" points="1038.82,-757.08 1028.8,-760.52 1038.78,-764.08 1038.82,-757.08"/>
</g>
<!-- epoll_ctl&#45;&gt;statx -->
<g id="edge121" class="edge">
<title>epoll_ctl&#45;&gt;statx</title>
<path fill="none" stroke="black" d="M2198.8,-269.89C2217.79,-278.87 2240,-292.76 2254.05,-311 2274.64,-337.72 2268.48,-350.66 2278.05,-383 2338.34,-586.72 2356.47,-569.66 2334.05,-635 2320.9,-673.35 2309.3,-681.17 2278.05,-707 2223.83,-751.84 2202.48,-753.11 2137.05,-779 2029.94,-821.39 2001.15,-829.06 1888.05,-851 1711.26,-885.3 1496,-898.29 1404.47,-902.38"/>
<polygon fill="black" stroke="black" points="1404.28,-898.89 1394.44,-902.82 1404.59,-905.88 1404.28,-898.89"/>
</g>
<!-- epoll_ctl&#45;&gt;openat -->
<g id="edge128" class="edge">
<title>epoll_ctl&#45;&gt;openat</title>
<path fill="none" stroke="black" d="M2185.97,-273.35C2213.15,-297.73 2255.05,-347.9 2255.05,-400 2255.05,-474 2255.05,-474 2255.05,-474 2255.05,-677.22 1968.64,-786.19 1855.3,-820.2"/>
<polygon fill="black" stroke="black" points="1854.13,-816.89 1845.52,-823.07 1856.1,-823.61 1854.13,-816.89"/>
</g>
<!-- epoll_ctl&#45;&gt;fcntl -->
<g id="edge131" class="edge">
<title>epoll_ctl&#45;&gt;fcntl</title>
<path fill="none" stroke="black" d="M2205.8,-266.7C2231.97,-274.56 2264.32,-288.42 2285.05,-311 2537.45,-585.88 2470.06,-748.78 2446.05,-779 2402.06,-834.38 2359.56,-797.42 2291.05,-815 2176.57,-844.38 2139.01,-830.77 2035.05,-887 2002.1,-904.82 1970.63,-934.96 1949.41,-955.17"/>
<polygon fill="black" stroke="black" points="1946.92,-952.7 1942.07,-962.12 1951.73,-957.78 1946.92,-952.7"/>
</g>
<!-- epoll_ctl&#45;&gt;recvfrom -->
<g id="edge129" class="edge">
<title>epoll_ctl&#45;&gt;recvfrom</title>
<path fill="none" stroke="black" d="M2210.45,-250.45C2315.9,-237.83 2573.48,-207.01 2690.04,-193.06"/>
<polygon fill="black" stroke="black" points="2690.68,-196.51 2700.2,-191.85 2689.85,-189.56 2690.68,-196.51"/>
</g>
<!-- timerfd_settime&#45;&gt;mprotect -->
<g id="edge101" class="edge">
<title>timerfd_settime&#45;&gt;mprotect</title>
<path fill="none" stroke="black" d="M1941.27,-342.02C1981.24,-351.06 2034.76,-364.97 2080.05,-383 2142.5,-407.86 2156.69,-418.38 2213.05,-455 2499.14,-640.88 2656.48,-645.92 2792.05,-959 2822.49,-1029.27 2790.17,-1121.47 2770.65,-1165.87"/>
<polygon fill="black" stroke="black" points="2767.41,-1164.54 2766.47,-1175.09 2773.79,-1167.43 2767.41,-1164.54"/>
</g>
<!-- timerfd_settime&#45;&gt;clock_gettime -->
<g id="edge104" class="edge">
<title>timerfd_settime&#45;&gt;clock_gettime</title>
<path fill="none" stroke="black" d="M1927.17,-344.36C2072.78,-395.79 2520.05,-584.86 2520.05,-904 2520.05,-978 2520.05,-978 2520.05,-978 2520.05,-1018 2520.05,-1064.35 2517.76,-1092.92"/>
<polygon fill="black" stroke="black" points="2514.27,-1092.65 2516.77,-1102.95 2521.24,-1093.35 2514.27,-1092.65"/>
</g>
<!-- timerfd_settime&#45;&gt;ioctl -->
<g id="edge114" class="edge">
<title>timerfd_settime&#45;&gt;ioctl</title>
<path fill="none" stroke="black" d="M1863.1,-346.67C1850.48,-356.07 1834.5,-368.77 1823.05,-383 1684.33,-555.37 1608.05,-610.75 1608.05,-832 1608.05,-906 1608.05,-906 1608.05,-906 1608.05,-948.91 1630.45,-994.34 1644.64,-1021.94"/>
<polygon fill="black" stroke="black" points="1641.58,-1023.64 1649.27,-1030.93 1647.8,-1020.44 1641.58,-1023.64"/>
</g>
<!-- timerfd_settime&#45;&gt;epoll_wait -->
<g id="edge107" class="edge">
<title>timerfd_settime&#45;&gt;epoll_wait</title>
<path fill="none" stroke="black" d="M1806.95,-337.55C1662.15,-351.62 1346.85,-381.55 1210.25,-394.18"/>
<polygon fill="black" stroke="black" points="1209.58,-390.73 1199.94,-395.13 1210.22,-397.7 1209.58,-390.73"/>
</g>
<!-- timerfd_settime&#45;&gt;close -->
<g id="edge115" class="edge">
<title>timerfd_settime&#45;&gt;close</title>
<path fill="none" stroke="black" d="M1913.85,-312.27C1955.78,-294.12 2031.42,-263.61 2097.05,-239 2142.07,-222.12 2171.29,-242.24 2199.05,-203 2236.97,-149.41 2154.53,-90.3 2107.5,-60.85"/>
<polygon fill="black" stroke="black" points="2109.24,-57.81 2098.89,-55.53 2105.56,-63.77 2109.24,-57.81"/>
</g>
<!-- timerfd_settime&#45;&gt;read -->
<g id="edge111" class="edge">
<title>timerfd_settime&#45;&gt;read</title>
<path fill="none" stroke="black" d="M1886.4,-310.99C1900.79,-279.87 1942.52,-212.78 1990.05,-167 2005.61,-152.02 2025.89,-138.51 2043.21,-128.88"/>
<polygon fill="black" stroke="black" points="2045.29,-131.74 2052.47,-123.95 2042,-125.56 2045.29,-131.74"/>
</g>
<!-- timerfd_settime&#45;&gt;sendmsg -->
<g id="edge109" class="edge">
<title>timerfd_settime&#45;&gt;sendmsg</title>
<path fill="none" stroke="black" d="M1810.11,-319.28C1603.61,-293.55 1012.22,-218.22 824.75,-193.77"/>
<polygon fill="black" stroke="black" points="824.92,-190.26 814.55,-192.43 824.02,-197.2 824.92,-190.26"/>
</g>
<!-- timerfd_settime&#45;&gt;epoll_ctl -->
<g id="edge106" class="edge">
<title>timerfd_settime&#45;&gt;epoll_ctl</title>
<path fill="none" stroke="black" d="M1932.39,-314.46C1975.01,-303.99 2037.48,-288.96 2092.05,-275 2098.69,-273.3 2105.71,-271.46 2112.67,-269.63"/>
<polygon fill="black" stroke="black" points="2114,-272.9 2122.79,-266.99 2112.23,-266.13 2114,-272.9"/>
</g>
<!-- timerfd_settime&#45;&gt;timerfd_settime -->
<g id="edge105" class="edge">
<title>timerfd_settime&#45;&gt;timerfd_settime</title>
<path fill="none" stroke="black" d="M1939.33,-342.34C1964.04,-343.43 1985.2,-338.98 1985.2,-329 1985.2,-320.42 1969.57,-315.93 1949.49,-315.53"/>
<polygon fill="black" stroke="black" points="1949.28,-312.03 1939.33,-315.66 1949.37,-319.03 1949.28,-312.03"/>
</g>
<!-- timerfd_settime&#45;&gt;write -->
<g id="edge110" class="edge">
<title>timerfd_settime&#45;&gt;write</title>
<path fill="none" stroke="black" d="M1805.47,-337.04C1698.41,-347 1514.34,-365.91 1488.05,-383 1440.89,-413.66 1453.98,-444.68 1422.05,-491 1414.91,-501.37 1406.47,-512.45 1398.43,-521.78"/>
<polygon fill="black" stroke="black" points="1395.6,-519.7 1391.51,-529.48 1400.8,-524.38 1395.6,-519.7"/>
</g>
<!-- timerfd_settime&#45;&gt;lseek -->
<g id="edge103" class="edge">
<title>timerfd_settime&#45;&gt;lseek</title>
<path fill="none" stroke="black" d="M1867.47,-347.11C1857.82,-356.45 1846.23,-368.98 1840.05,-383 1794.83,-485.71 1850.34,-525.9 1824.05,-635 1821.71,-644.74 1817.69,-654.95 1813.13,-663.77"/>
<polygon fill="black" stroke="black" points="1809.94,-662.3 1808.02,-672.72 1816.02,-665.77 1809.94,-662.3"/>
</g>
<!-- timerfd_settime&#45;&gt;recvmsg -->
<g id="edge102" class="edge">
<title>timerfd_settime&#45;&gt;recvmsg</title>
<path fill="none" stroke="black" d="M1888.33,-347.11C1897.19,-387.1 1911.96,-488.9 1952.05,-563 1957.61,-573.26 1965.55,-583.13 1972.94,-591.51"/>
<polygon fill="black" stroke="black" points="1970.45,-593.98 1979.75,-599.06 1975.64,-589.29 1970.45,-593.98"/>
</g>
<!-- timerfd_settime&#45;&gt;readlink -->
<g id="edge112" class="edge">
<title>timerfd_settime&#45;&gt;readlink</title>
<path fill="none" stroke="black" d="M1797.53,-331.29C1738.82,-335.74 1660.66,-348.55 1600.05,-383 1507.76,-435.46 1528.5,-500 1443.05,-563 1315.89,-656.75 1263.36,-644.97 1118.05,-707 1087.41,-720.08 1052.44,-734.41 1025.25,-744.87"/>
<polygon fill="black" stroke="black" points="1023.71,-741.71 1015.61,-748.54 1026.2,-748.25 1023.71,-741.71"/>
</g>
<!-- timerfd_settime&#45;&gt;statx -->
<g id="edge108" class="edge">
<title>timerfd_settime&#45;&gt;statx</title>
<path fill="none" stroke="black" d="M1827.54,-342.97C1796.85,-351.31 1758.75,-364.18 1728.05,-383 1526.49,-506.55 1410.09,-790.62 1372.78,-877.97"/>
<polygon fill="black" stroke="black" points="1369.47,-876.82 1368.72,-887.39 1375.89,-879.59 1369.47,-876.82"/>
</g>
<!-- timerfd_settime&#45;&gt;openat -->
<g id="edge113" class="edge">
<title>timerfd_settime&#45;&gt;openat</title>
<path fill="none" stroke="black" d="M1886.13,-347.12C1891.64,-400.81 1890.32,-570.4 1862.05,-707 1854.71,-742.51 1840.04,-781.81 1827.78,-806.69"/>
<polygon fill="black" stroke="black" points="1824.56,-805.31 1823.05,-815.79 1830.77,-808.54 1824.56,-805.31"/>
</g>
<!-- write&#45;&gt;clock_gettime -->
<g id="edge183" class="edge">
<title>write&#45;&gt;clock_gettime</title>
<path fill="none" stroke="black" d="M1384.52,-562.18C1394.18,-580.61 1407.24,-611.25 1423.05,-635 1526.59,-790.43 1569.2,-826.43 1729.05,-923 1862.54,-1003.65 1898.64,-1025.78 2049.05,-1067 2178.08,-1102.35 2333.18,-1114.18 2426.9,-1118.1"/>
<polygon fill="black" stroke="black" points="2426.76,-1121.6 2436.9,-1118.5 2427.04,-1114.6 2426.76,-1121.6"/>
</g>
<!-- write&#45;&gt;ioctl -->
<g id="edge187" class="edge">
<title>write&#45;&gt;ioctl</title>
<path fill="none" stroke="black" d="M1373.69,-563.41C1371.49,-573.63 1367.74,-586.88 1366.05,-599 1363.85,-614.85 1364.63,-619.06 1366.05,-635 1378.5,-773.98 1401.4,-816.08 1491.05,-923 1530.39,-969.92 1591.02,-1008.34 1626.65,-1029.7"/>
<polygon fill="black" stroke="black" points="1625.18,-1032.9 1635.57,-1035 1628.76,-1026.88 1625.18,-1032.9"/>
</g>
<!-- write&#45;&gt;epoll_wait -->
<g id="edge177" class="edge">
<title>write&#45;&gt;epoll_wait</title>
<path fill="none" stroke="black" d="M1337.65,-540.58C1282.01,-533.89 1176.67,-517.36 1152.05,-491 1136.77,-474.64 1133.55,-448.89 1135.25,-429.29"/>
<polygon fill="black" stroke="black" points="1138.75,-429.52 1136.66,-419.13 1131.82,-428.56 1138.75,-429.52"/>
</g>
<!-- write&#45;&gt;close -->
<g id="edge176" class="edge">
<title>write&#45;&gt;close</title>
<path fill="none" stroke="black" d="M1360.6,-527.54C1322.96,-462.44 1211.36,-223.79 1260.05,-167 1360.88,-49.4 1876.6,-41.44 2033.07,-41.67"/>
<polygon fill="black" stroke="black" points="2033.27,-45.17 2043.28,-41.7 2033.29,-38.17 2033.27,-45.17"/>
</g>
<!-- write&#45;&gt;read -->
<g id="edge185" class="edge">
<title>write&#45;&gt;read</title>
<path fill="none" stroke="black" d="M1369.93,-526.6C1371.96,-499.92 1381.05,-447.23 1381.05,-402 1381.05,-402 1381.05,-402 1381.05,-256 1381.05,-122.46 1884.52,-113.48 2035.72,-113.67"/>
<polygon fill="black" stroke="black" points="2035.97,-117.17 2045.98,-113.7 2035.99,-110.17 2035.97,-117.17"/>
</g>
<!-- write&#45;&gt;epoll_ctl -->
<g id="edge186" class="edge">
<title>write&#45;&gt;epoll_ctl</title>
<path fill="none" stroke="black" d="M1385.09,-527.86C1417.21,-496.41 1501.37,-426.26 1582.05,-383 1755.91,-289.78 1994.82,-266.06 2104.63,-260.04"/>
<polygon fill="black" stroke="black" points="2105.04,-263.53 2114.85,-259.51 2104.68,-256.54 2105.04,-263.53"/>
</g>
<!-- write&#45;&gt;timerfd_settime -->
<g id="edge184" class="edge">
<title>write&#45;&gt;timerfd_settime</title>
<path fill="none" stroke="black" d="M1378.01,-527.17C1385.03,-516.92 1395.47,-503.45 1404.05,-491 1435.98,-444.68 1422.89,-413.66 1470.05,-383 1496.36,-365.89 1680.69,-346.97 1793.75,-337.02"/>
<polygon fill="black" stroke="black" points="1794.13,-340.5 1803.78,-336.14 1793.52,-333.52 1794.13,-340.5"/>
</g>
<!-- write&#45;&gt;write -->
<g id="edge178" class="edge">
<title>write&#45;&gt;write</title>
<path fill="none" stroke="black" d="M1397.18,-557.76C1411.67,-560.36 1425.15,-556.11 1425.15,-545 1425.15,-536.58 1417.41,-532.1 1407.35,-531.56"/>
<polygon fill="black" stroke="black" points="1406.92,-528.08 1397.18,-532.24 1407.4,-535.06 1406.92,-528.08"/>
</g>
<!-- write&#45;&gt;lseek -->
<g id="edge179" class="edge">
<title>write&#45;&gt;lseek</title>
<path fill="none" stroke="black" d="M1404.25,-552.23C1417.95,-555.49 1433.83,-559.51 1448.05,-563 1515.48,-579.54 1534.26,-576.85 1600.05,-599 1659.57,-619.03 1725.62,-650.09 1762.83,-669.71"/>
<polygon fill="black" stroke="black" points="1761.18,-672.8 1771.64,-674.44 1764.49,-666.63 1761.18,-672.8"/>
</g>
<!-- write&#45;&gt;statx -->
<g id="edge182" class="edge">
<title>write&#45;&gt;statx</title>
<path fill="none" stroke="black" d="M1340.33,-552.77C1282.16,-566.4 1165.05,-603.41 1165.05,-688 1165.05,-762 1165.05,-762 1165.05,-762 1165.05,-838.33 1262.44,-876.97 1319.67,-893.57"/>
<polygon fill="black" stroke="black" points="1318.94,-897 1329.52,-896.32 1320.83,-890.25 1318.94,-897"/>
</g>
<!-- write&#45;&gt;openat -->
<g id="edge181" class="edge">
<title>write&#45;&gt;openat</title>
<path fill="none" stroke="black" d="M1402.52,-554.17C1430.65,-563.43 1472.52,-579.78 1506.05,-599 1619.91,-664.26 1740.68,-764.17 1788.81,-808.92"/>
<polygon fill="black" stroke="black" points="1786.48,-811.54 1796.15,-815.87 1791.29,-806.46 1786.48,-811.54"/>
</g>
<!-- write&#45;&gt;futex -->
<g id="edge180" class="edge">
<title>write&#45;&gt;futex</title>
<path fill="none" stroke="black" d="M1339.1,-538.51C1271.22,-526.38 1116.49,-497.23 1042.2,-482.64"/>
<polygon fill="black" stroke="black" points="1042.76,-479.18 1032.27,-480.68 1041.4,-486.05 1042.76,-479.18"/>
</g>
<!-- lseek&#45;&gt;clock_gettime -->
<g id="edge43" class="edge">
<title>lseek&#45;&gt;clock_gettime</title>
<path fill="none" stroke="black" d="M1824.69,-695.05C1923.66,-712.93 2222.22,-781.94 2380.05,-959 2416.74,-1000.15 2403.6,-1026.55 2441.05,-1067 2452.18,-1079.01 2466.53,-1089.67 2479.42,-1098.22"/>
<polygon fill="black" stroke="black" points="2477.76,-1101.31 2488.06,-1103.79 2481.55,-1095.43 2477.76,-1101.31"/>
</g>
<!-- lseek&#45;&gt;ioctl -->
<g id="edge48" class="edge">
<title>lseek&#45;&gt;ioctl</title>
<path fill="none" stroke="black" d="M1784.6,-706.6C1777.2,-716.55 1766.95,-729.8 1760.05,-743 1709.66,-839.39 1680.17,-966.9 1665.07,-1021.43"/>
<polygon fill="black" stroke="black" points="1661.62,-1020.75 1662.24,-1031.33 1668.35,-1022.68 1661.62,-1020.75"/>
</g>
<!-- lseek&#45;&gt;epoll_wait -->
<g id="edge44" class="edge">
<title>lseek&#45;&gt;epoll_wait</title>
<path fill="none" stroke="black" d="M1769.79,-675.06C1742.34,-656.33 1694.74,-621.45 1650.05,-599 1521.93,-534.63 1479.68,-543 1346.05,-491 1287.81,-468.33 1221.55,-439.78 1181.42,-421.22"/>
<polygon fill="black" stroke="black" points="1182.83,-418.02 1172.29,-416.96 1179.87,-424.36 1182.83,-418.02"/>
</g>
<!-- lseek&#45;&gt;close -->
<g id="edge47" class="edge">
<title>lseek&#45;&gt;close</title>
<path fill="none" stroke="black" d="M1825.35,-683.99C1880.25,-677.39 1992.22,-662.2 2084.05,-635 2173.77,-608.42 2837.05,-351.57 2837.05,-258 2837.05,-258 2837.05,-258 2837.05,-184 2837.05,-110.36 2284.06,-59.45 2122.06,-45.72"/>
<polygon fill="black" stroke="black" points="2122.22,-42.22 2111.97,-44.87 2121.64,-49.19 2122.22,-42.22"/>
</g>
<!-- lseek&#45;&gt;read -->
<g id="edge45" class="edge">
<title>lseek&#45;&gt;read</title>
<path fill="none" stroke="black" d="M1779.85,-672.09C1749.75,-622.75 1677.05,-467.42 1677.05,-330 1677.05,-330 1677.05,-330 1677.05,-256 1677.05,-180.86 1934.89,-134.2 2037.15,-119.25"/>
<polygon fill="black" stroke="black" points="2037.71,-122.7 2047.11,-117.82 2036.72,-115.77 2037.71,-122.7"/>
</g>
<!-- lseek&#45;&gt;sendmsg -->
<g id="edge46" class="edge">
<title>lseek&#45;&gt;sendmsg</title>
<path fill="none" stroke="black" d="M1758.08,-686.02C1580.92,-674.76 771.05,-611.85 771.05,-402 771.05,-402 771.05,-402 771.05,-328 771.05,-287.98 769.45,-241.64 768.27,-213.07"/>
<polygon fill="black" stroke="black" points="771.77,-212.89 767.84,-203.04 764.77,-213.18 771.77,-212.89"/>
</g>
<!-- lseek&#45;&gt;epoll_ctl -->
<g id="edge40" class="edge">
<title>lseek&#45;&gt;epoll_ctl</title>
<path fill="none" stroke="black" d="M1819.91,-678.12C1829.16,-675.67 1839.47,-673.13 1849.05,-671 1933.81,-652.16 1971.29,-686.68 2041.05,-635 2105.9,-586.95 2125.05,-554.71 2125.05,-474 2125.05,-474 2125.05,-474 2125.05,-400 2125.05,-358.93 2137.21,-312.6 2148.37,-284.35"/>
<polygon fill="black" stroke="black" points="2151.74,-285.38 2152.41,-274.81 2145.29,-282.65 2151.74,-285.38"/>
</g>
<!-- lseek&#45;&gt;timerfd_settime -->
<g id="edge51" class="edge">
<title>lseek&#45;&gt;timerfd_settime</title>
<path fill="none" stroke="black" d="M1793.42,-670.86C1797.3,-660.73 1803.05,-647.48 1806.05,-635 1832.34,-525.9 1776.83,-485.71 1822.05,-383 1827.08,-371.59 1835.69,-361.17 1844.92,-352.65"/>
<polygon fill="black" stroke="black" points="1847.43,-355.11 1852.76,-345.96 1842.88,-349.79 1847.43,-355.11"/>
</g>
<!-- lseek&#45;&gt;write -->
<g id="edge38" class="edge">
<title>lseek&#45;&gt;write</title>
<path fill="none" stroke="black" d="M1765.68,-677.2C1726.17,-658.96 1649.87,-621.83 1582.05,-599 1516.26,-576.85 1497.48,-579.54 1430.05,-563 1423.71,-561.44 1417.03,-559.78 1410.53,-558.12"/>
<polygon fill="black" stroke="black" points="1411.1,-554.66 1400.55,-555.55 1409.35,-561.44 1411.1,-554.66"/>
</g>
<!-- lseek&#45;&gt;lseek -->
<g id="edge50" class="edge">
<title>lseek&#45;&gt;lseek</title>
<path fill="none" stroke="black" d="M1816.6,-701.71C1831.01,-704.42 1844.5,-700.18 1844.5,-689 1844.5,-680.53 1836.76,-676.04 1826.73,-675.55"/>
<polygon fill="black" stroke="black" points="1826.32,-672.07 1816.6,-676.29 1826.83,-679.05 1826.32,-672.07"/>
</g>
<!-- lseek&#45;&gt;recvmsg -->
<g id="edge42" class="edge">
<title>lseek&#45;&gt;recvmsg</title>
<path fill="none" stroke="black" d="M1818.09,-677.06C1850.19,-665.05 1905.03,-645.69 1944.42,-632.44"/>
<polygon fill="black" stroke="black" points="1945.71,-635.7 1954.08,-629.21 1943.49,-629.06 1945.71,-635.7"/>
</g>
<!-- lseek&#45;&gt;statx -->
<g id="edge49" class="edge">
<title>lseek&#45;&gt;statx</title>
<path fill="none" stroke="black" d="M1769.6,-702.82C1698.76,-740.06 1480.62,-848.17 1394.96,-888.55"/>
<polygon fill="black" stroke="black" points="1393.47,-885.38 1385.9,-892.8 1396.44,-891.72 1393.47,-885.38"/>
</g>
<!-- lseek&#45;&gt;openat -->
<g id="edge41" class="edge">
<title>lseek&#45;&gt;openat</title>
<path fill="none" stroke="black" d="M1798.72,-706.75C1804.37,-730.87 1810.36,-775.65 1812.04,-804.62"/>
<polygon fill="black" stroke="black" points="1808.56,-805.03 1812.47,-814.87 1815.55,-804.73 1808.56,-805.03"/>
</g>
<!-- lseek&#45;&gt;fcntl -->
<g id="edge39" class="edge">
<title>lseek&#45;&gt;fcntl</title>
<path fill="none" stroke="black" d="M1782.5,-706.58C1766.62,-736.45 1738.48,-800.84 1759.05,-851 1782.28,-907.64 1847.65,-944.25 1888.8,-962.41"/>
<polygon fill="black" stroke="black" points="1887.62,-965.71 1898.19,-966.42 1890.37,-959.27 1887.62,-965.71"/>
</g>
<!-- recvmsg&#45;&gt;clock_gettime -->
<g id="edge69" class="edge">
<title>recvmsg&#45;&gt;clock_gettime</title>
<path fill="none" stroke="black" d="M2018.31,-632.11C2091.18,-674.28 2291.99,-805.93 2414.05,-959 2449.79,-1003.82 2485.16,-1060.73 2501.96,-1093.5"/>
<polygon fill="black" stroke="black" points="2499,-1095.42 2506.55,-1102.85 2505.28,-1092.33 2499,-1095.42"/>
</g>
<!-- recvmsg&#45;&gt;ioctl -->
<g id="edge66" class="edge">
<title>recvmsg&#45;&gt;ioctl</title>
<path fill="none" stroke="black" d="M1999.9,-635.04C2022.27,-693.76 2069.1,-889.89 1974.05,-995 1937.99,-1034.89 1773.88,-1044.77 1696.03,-1047.21"/>
<polygon fill="black" stroke="black" points="1695.54,-1043.72 1685.64,-1047.5 1695.74,-1050.72 1695.54,-1043.72"/>
</g>
<!-- recvmsg&#45;&gt;epoll_wait -->
<g id="edge68" class="edge">
<title>recvmsg&#45;&gt;epoll_wait</title>
<path fill="none" stroke="black" d="M1950.33,-606.46C1810.69,-572.35 1351.92,-456.35 1196.78,-415.98"/>
<polygon fill="black" stroke="black" points="1197.57,-412.57 1187.01,-413.44 1195.8,-419.34 1197.57,-412.57"/>
</g>
<!-- recvmsg&#45;&gt;read -->
<g id="edge70" class="edge">
<title>recvmsg&#45;&gt;read</title>
<path fill="none" stroke="black" d="M1990.34,-598.92C1994.7,-562.81 2013.05,-475.95 2013.05,-402 2013.05,-402 2013.05,-402 2013.05,-256 2013.05,-211.52 2037.12,-164.33 2056.24,-137.1"/>
<polygon fill="black" stroke="black" points="2059.1,-139.11 2062.23,-128.99 2053.48,-134.95 2059.1,-139.11"/>
</g>
<!-- recvmsg&#45;&gt;epoll_ctl -->
<g id="edge65" class="edge">
<title>recvmsg&#45;&gt;epoll_ctl</title>
<path fill="none" stroke="black" d="M1992.85,-598.74C2000.67,-574.74 2020.55,-529.86 2036.05,-491 2067.63,-411.86 2056.19,-382.81 2102.05,-311 2109.59,-299.2 2120.15,-287.96 2130.53,-278.89"/>
<polygon fill="black" stroke="black" points="2132.9,-281.47 2138.38,-272.41 2128.44,-276.08 2132.9,-281.47"/>
</g>
<!-- recvmsg&#45;&gt;timerfd_settime -->
<g id="edge67" class="edge">
<title>recvmsg&#45;&gt;timerfd_settime</title>
<path fill="none" stroke="black" d="M1966.42,-601.33C1954.75,-591.47 1941.97,-577.63 1934.05,-563 1897.01,-494.54 1881.59,-402.44 1879.39,-357.28"/>
<polygon fill="black" stroke="black" points="1882.88,-357.01 1879.11,-347.11 1875.88,-357.2 1882.88,-357.01"/>
</g>
<!-- recvmsg&#45;&gt;write -->
<g id="edge64" class="edge">
<title>recvmsg&#45;&gt;write</title>
<path fill="none" stroke="black" d="M1944.02,-610.68C1827.88,-597.55 1528.76,-563.72 1415.97,-550.97"/>
<polygon fill="black" stroke="black" points="1416.3,-547.48 1405.97,-549.83 1415.51,-554.44 1416.3,-547.48"/>
</g>
<!-- recvmsg&#45;&gt;lseek -->
<g id="edge63" class="edge">
<title>recvmsg&#45;&gt;lseek</title>
<path fill="none" stroke="black" d="M1959.45,-631.01C1924.58,-643.93 1868.68,-663.58 1831.1,-676.1"/>
<polygon fill="black" stroke="black" points="1829.89,-672.81 1821.5,-679.28 1832.09,-679.46 1829.89,-672.81"/>
</g>
<!-- readlink&#45;&gt;clock_gettime -->
<g id="edge216" class="edge">
<title>readlink&#45;&gt;clock_gettime</title>
<path fill="none" stroke="black" d="M991.25,-778.7C999.89,-797.89 1012.04,-829.5 1031.05,-851 1070.76,-895.89 1091.53,-896.06 1145.05,-923 1303.41,-1002.71 1343.7,-1029.86 1517.05,-1067 1690.07,-1104.07 2219.13,-1115.67 2426.49,-1118.89"/>
<polygon fill="black" stroke="black" points="2426.66,-1122.39 2436.72,-1119.05 2426.77,-1115.39 2426.66,-1122.39"/>
</g>
<!-- readlink&#45;&gt;ioctl -->
<g id="edge209" class="edge">
<title>readlink&#45;&gt;ioctl</title>
<path fill="none" stroke="black" d="M997.95,-777.77C1016.13,-797.54 1045.08,-831.23 1077.05,-851 1208.32,-932.14 1267.68,-892.74 1407.05,-959 1433.78,-971.7 1435.97,-983.08 1463.05,-995 1514.15,-1017.48 1576.88,-1032.15 1616.54,-1040.23"/>
<polygon fill="black" stroke="black" points="1616.11,-1043.71 1626.6,-1042.24 1617.48,-1036.85 1616.11,-1043.71"/>
</g>
<!-- readlink&#45;&gt;epoll_wait -->
<g id="edge212" class="edge">
<title>readlink&#45;&gt;epoll_wait</title>
<path fill="none" stroke="black" d="M976.7,-742.95C977.99,-732.63 980.81,-719.15 982.05,-707 983.69,-691.08 983.5,-686.93 982.05,-671 973.26,-574.28 890.49,-532.47 949.05,-455 964.98,-433.93 1031.37,-418.81 1082.6,-410.24"/>
<polygon fill="black" stroke="black" points="1083.31,-413.67 1092.62,-408.61 1082.19,-406.76 1083.31,-413.67"/>
</g>
<!-- readlink&#45;&gt;close -->
<g id="edge208" class="edge">
<title>readlink&#45;&gt;close</title>
<path fill="none" stroke="black" d="M942.3,-749.31C802.19,-706.62 321.05,-543.88 321.05,-402 321.05,-402 321.05,-402 321.05,-184 321.05,-148.35 21.77,-177.13 716.05,-95 979.36,-63.85 1829.17,-46.45 2033.59,-42.75"/>
<polygon fill="black" stroke="black" points="2033.72,-46.25 2043.66,-42.57 2033.6,-39.25 2033.72,-46.25"/>
</g>
<!-- readlink&#45;&gt;read -->
<g id="edge213" class="edge">
<title>readlink&#45;&gt;read</title>
<path fill="none" stroke="black" d="M967.97,-743.48C941.57,-696.58 886.72,-559.28 927.05,-455 989.48,-293.61 1032.97,-241.7 1189.05,-167 1265.55,-130.39 1869.18,-117.44 2035.71,-114.63"/>
<polygon fill="black" stroke="black" points="2036.1,-118.12 2046.04,-114.46 2035.98,-111.12 2036.1,-118.12"/>
</g>
<!-- readlink&#45;&gt;sendmsg -->
<g id="edge204" class="edge">
<title>readlink&#45;&gt;sendmsg</title>
<path fill="none" stroke="black" d="M951.77,-746.29C876.31,-704.55 677.05,-571.5 677.05,-402 677.05,-402 677.05,-402 677.05,-328 677.05,-280.73 711.34,-234.86 737.78,-208.58"/>
<polygon fill="black" stroke="black" points="740.51,-210.81 745.34,-201.38 735.68,-205.74 740.51,-210.81"/>
</g>
<!-- readlink&#45;&gt;epoll_ctl -->
<g id="edge214" class="edge">
<title>readlink&#45;&gt;epoll_ctl</title>
<path fill="none" stroke="black" d="M1029.1,-760.56C1219.85,-761.7 1909.56,-756.79 2084.05,-635 2152.56,-587.19 2181.05,-557.54 2181.05,-474 2181.05,-474 2181.05,-474 2181.05,-400 2181.05,-359.55 2170.72,-313.67 2165.34,-285.28"/>
<polygon fill="black" stroke="black" points="2168.76,-284.53 2163.55,-275.3 2161.87,-285.76 2168.76,-284.53"/>
</g>
<!-- readlink&#45;&gt;timerfd_settime -->
<g id="edge210" class="edge">
<title>readlink&#45;&gt;timerfd_settime</title>
<path fill="none" stroke="black" d="M1007.48,-745.97C1031.95,-735.43 1068.32,-720.55 1100.05,-707 1245.36,-644.97 1297.89,-656.75 1425.05,-563 1510.5,-500 1489.76,-435.46 1582.05,-383 1644.22,-347.67 1724.86,-335.09 1786.92,-330.97"/>
<polygon fill="black" stroke="black" points="1787.34,-334.45 1797.11,-330.36 1786.92,-327.46 1787.34,-334.45"/>
</g>
<!-- readlink&#45;&gt;write -->
<g id="edge206" class="edge">
<title>readlink&#45;&gt;write</title>
<path fill="none" stroke="black" d="M1016.26,-748.77C1038.51,-740.31 1066.26,-726.74 1085.05,-707 1121.27,-668.95 1092.39,-632.25 1133.05,-599 1162.45,-574.97 1267.22,-558.67 1327.85,-551.01"/>
<polygon fill="black" stroke="black" points="1328.4,-554.47 1337.9,-549.77 1327.55,-547.52 1328.4,-554.47"/>
</g>
<!-- readlink&#45;&gt;lseek -->
<g id="edge207" class="edge">
<title>readlink&#45;&gt;lseek</title>
<path fill="none" stroke="black" d="M1026.92,-755.96C1171.24,-743.52 1607.6,-705.9 1748.02,-693.8"/>
<polygon fill="black" stroke="black" points="1748.33,-697.28 1758,-692.94 1747.73,-690.31 1748.33,-697.28"/>
</g>
<!-- readlink&#45;&gt;readlink -->
<g id="edge211" class="edge">
<title>readlink&#45;&gt;readlink</title>
<path fill="none" stroke="black" d="M1013.71,-774.03C1031.11,-776.03 1046.8,-771.69 1046.8,-761 1046.8,-752.48 1036.84,-748 1023.99,-747.54"/>
<polygon fill="black" stroke="black" points="1023.55,-744.05 1013.71,-747.97 1023.85,-751.05 1023.55,-744.05"/>
</g>
<!-- readlink&#45;&gt;statx -->
<g id="edge215" class="edge">
<title>readlink&#45;&gt;statx</title>
<path fill="none" stroke="black" d="M1008.27,-775.81C1051.19,-799.44 1128.52,-845.63 1142.05,-851 1201.02,-874.42 1272.91,-889.04 1317.7,-896.84"/>
<polygon fill="black" stroke="black" points="1317.21,-900.31 1327.66,-898.55 1318.39,-893.41 1317.21,-900.31"/>
</g>
<!-- readlink&#45;&gt;openat -->
<g id="edge205" class="edge">
<title>readlink&#45;&gt;openat</title>
<path fill="none" stroke="black" d="M1027.23,-765.71C1172.05,-777.53 1609.02,-814.38 1758.97,-827.39"/>
<polygon fill="black" stroke="black" points="1758.99,-830.91 1769.26,-828.29 1759.6,-823.93 1758.99,-830.91"/>
</g>
<!-- statx&#45;&gt;clock_gettime -->
<g id="edge92" class="edge">
<title>statx&#45;&gt;clock_gettime</title>
<path fill="none" stroke="black" d="M1378.29,-920.57C1397.65,-939.67 1428.79,-973.29 1461.05,-995 1526.76,-1039.22 1547.08,-1048.37 1624.05,-1067 1775.19,-1103.59 2235.24,-1115.34 2426.43,-1118.74"/>
<polygon fill="black" stroke="black" points="2426.64,-1122.25 2436.7,-1118.92 2426.77,-1115.25 2426.64,-1122.25"/>
</g>
<!-- statx&#45;&gt;ioctl -->
<g id="edge97" class="edge">
<title>statx&#45;&gt;ioctl</title>
<path fill="none" stroke="black" d="M1385.28,-917.45C1429.1,-939.96 1515,-988.37 1529.05,-995 1560.15,-1009.67 1596.48,-1023.77 1622.25,-1033.74"/>
<polygon fill="black" stroke="black" points="1620.99,-1037 1631.58,-1037.34 1623.52,-1030.47 1620.99,-1037"/>
</g>
<!-- statx&#45;&gt;epoll_wait -->
<g id="edge95" class="edge">
<title>statx&#45;&gt;epoll_wait</title>
<path fill="none" stroke="black" d="M1325.61,-902.39C1268.16,-898.64 1150.75,-886.72 1059.05,-851 1031.13,-840.12 1028.72,-828.67 1002.05,-815 964.09,-795.53 936.91,-814.38 913.05,-779 889.18,-743.6 745.59,-676.88 927.05,-455 946.11,-431.7 1023.72,-416.75 1081.02,-408.87"/>
<polygon fill="black" stroke="black" points="1081.66,-412.31 1091.11,-407.52 1080.73,-405.37 1081.66,-412.31"/>
</g>
<!-- statx&#45;&gt;close -->
<g id="edge98" class="edge">
<title>statx&#45;&gt;close</title>
<path fill="none" stroke="black" d="M1325.45,-903.49C1237.58,-901.57 1000.15,-892.56 808.05,-851 493.22,-782.88 189.05,-796.12 189.05,-474 189.05,-474 189.05,-474 189.05,-184 189.05,-71.07 316.26,-116.89 427.05,-95 587.99,-63.2 1785.87,-45.75 2033.42,-42.54"/>
<polygon fill="black" stroke="black" points="2033.53,-46.04 2043.49,-42.41 2033.44,-39.04 2033.53,-46.04"/>
</g>
<!-- statx&#45;&gt;read -->
<g id="edge100" class="edge">
<title>statx&#45;&gt;read</title>
<path fill="none" stroke="black" d="M1325.57,-902.19C1260.67,-897.87 1117.35,-884.71 1002.05,-851 881.65,-815.8 527.05,-671.44 527.05,-546 527.05,-546 527.05,-546 527.05,-256 527.05,-170.72 614.65,-188.96 697.05,-167 828.64,-131.93 1818.46,-117.24 2035.94,-114.49"/>
<polygon fill="black" stroke="black" points="2036.04,-117.99 2045.99,-114.36 2035.95,-110.99 2036.04,-117.99"/>
</g>
<!-- statx&#45;&gt;epoll_ctl -->
<g id="edge94" class="edge">
<title>statx&#45;&gt;epoll_ctl</title>
<path fill="none" stroke="black" d="M1394.39,-902.41C1477.11,-898.34 1692.89,-885.37 1870.05,-851 1983.15,-829.06 2011.94,-821.39 2119.05,-779 2184.48,-753.11 2205.83,-751.84 2260.05,-707 2291.3,-681.17 2302.9,-673.35 2316.05,-635 2338.47,-569.66 2320.34,-586.72 2260.05,-383 2250.48,-350.66 2256.64,-337.72 2236.05,-311 2225.7,-297.57 2210.93,-286.49 2197.38,-278"/>
<polygon fill="black" stroke="black" points="2199.08,-274.94 2188.71,-272.79 2195.48,-280.94 2199.08,-274.94"/>
</g>
<!-- statx&#45;&gt;timerfd_settime -->
<g id="edge89" class="edge">
<title>statx&#45;&gt;timerfd_settime</title>
<path fill="none" stroke="black" d="M1362.88,-886.89C1383.54,-812.01 1500.97,-511.15 1710.05,-383 1739.94,-364.68 1776.84,-352 1808.85,-343.64"/>
<polygon fill="black" stroke="black" points="1809.77,-347.02 1818.61,-341.19 1808.06,-340.23 1809.77,-347.02"/>
</g>
<!-- statx&#45;&gt;write -->
<g id="edge93" class="edge">
<title>statx&#45;&gt;write</title>
<path fill="none" stroke="black" d="M1327.64,-898.4C1267.86,-885.27 1147.05,-847.01 1147.05,-762 1147.05,-762 1147.05,-762 1147.05,-688 1147.05,-603.87 1262.89,-566.81 1328.44,-552.99"/>
<polygon fill="black" stroke="black" points="1329.39,-556.37 1338.5,-550.97 1328.01,-549.51 1329.39,-556.37"/>
</g>
<!-- statx&#45;&gt;lseek -->
<g id="edge99" class="edge">
<title>statx&#45;&gt;lseek</title>
<path fill="none" stroke="black" d="M1382.37,-891.25C1453.06,-854.08 1671.37,-745.89 1757.11,-705.47"/>
<polygon fill="black" stroke="black" points="1758.85,-708.52 1766.42,-701.11 1755.88,-702.18 1758.85,-708.52"/>
</g>
<!-- statx&#45;&gt;readlink -->
<g id="edge96" class="edge">
<title>statx&#45;&gt;readlink</title>
<path fill="none" stroke="black" d="M1326.67,-900.25C1279.78,-893.76 1193.07,-878.42 1124.05,-851 1111.83,-846.14 1047.48,-807.95 1008.92,-783.2"/>
<polygon fill="black" stroke="black" points="1010.47,-780.04 1000.18,-777.53 1006.66,-785.91 1010.47,-780.04"/>
</g>
<!-- statx&#45;&gt;statx -->
<g id="edge90" class="edge">
<title>statx&#45;&gt;statx</title>
<path fill="none" stroke="black" d="M1384.6,-917.71C1399.01,-920.42 1412.5,-916.18 1412.5,-905 1412.5,-896.53 1404.76,-892.04 1394.73,-891.55"/>
<polygon fill="black" stroke="black" points="1394.32,-888.07 1384.6,-892.29 1394.83,-895.05 1394.32,-888.07"/>
</g>
<!-- statx&#45;&gt;openat -->
<g id="edge91" class="edge">
<title>statx&#45;&gt;openat</title>
<path fill="none" stroke="black" d="M1392.24,-898.39C1469.96,-885.73 1667.72,-854.94 1760.59,-841.03"/>
<polygon fill="black" stroke="black" points="1761.21,-844.48 1770.59,-839.54 1760.18,-837.55 1761.21,-844.48"/>
</g>
<!-- openat&#45;&gt;clock_gettime -->
<g id="edge86" class="edge">
<title>openat&#45;&gt;clock_gettime</title>
<path fill="none" stroke="black" d="M1836.28,-847.15C1907.91,-886.02 2112.46,-1001.74 2295.05,-1067 2344.31,-1084.61 2401.74,-1098.02 2445.06,-1106.95"/>
<polygon fill="black" stroke="black" points="2444.42,-1110.39 2454.92,-1108.96 2445.82,-1103.54 2444.42,-1110.39"/>
</g>
<!-- openat&#45;&gt;ioctl -->
<g id="edge85" class="edge">
<title>openat&#45;&gt;ioctl</title>
<path fill="none" stroke="black" d="M1801.74,-850.78C1777.88,-888.82 1710.85,-981.61 1676.11,-1024.97"/>
<polygon fill="black" stroke="black" points="1673.22,-1022.99 1669.62,-1032.95 1678.65,-1027.4 1673.22,-1022.99"/>
</g>
<!-- openat&#45;&gt;epoll_wait -->
<g id="edge79" class="edge">
<title>openat&#45;&gt;epoll_wait</title>
<path fill="none" stroke="black" d="M1777,-821.58C1699.56,-794.67 1502.23,-719.05 1348.05,-635 1246.75,-579.78 1186.5,-592.73 1132.05,-491 1121.83,-471.9 1123.99,-447.06 1129.52,-428.48"/>
<polygon fill="black" stroke="black" points="1132.88,-429.47 1132.88,-418.87 1126.27,-427.16 1132.88,-429.47"/>
</g>
<!-- openat&#45;&gt;close -->
<g id="edge84" class="edge">
<title>openat&#45;&gt;close</title>
<path fill="none" stroke="black" d="M1850.34,-827.31C1903.21,-820.77 1997.92,-806.47 2075.05,-779 2269.82,-709.65 2779.57,-466.68 2857.05,-275 2875.05,-230.48 2887.37,-206.49 2860.05,-167 2808.44,-92.39 2757.5,-115.18 2669.05,-95 2468.67,-49.29 2222.31,-42.53 2122.76,-41.85"/>
<polygon fill="black" stroke="black" points="2122.77,-38.35 2112.75,-41.8 2122.73,-45.35 2122.77,-38.35"/>
</g>
<!-- openat&#45;&gt;read -->
<g id="edge81" class="edge">
<title>openat&#45;&gt;read</title>
<path fill="none" stroke="black" d="M1842.12,-821.21C1849.94,-819.13 1858.25,-816.98 1866.05,-815 1930.83,-798.54 1950.31,-804.59 2012.05,-779 2142.8,-724.81 2198.47,-696.3 2246.05,-563 2305.64,-396.08 2326.31,-290.36 2199.05,-167 2176.19,-144.84 2142.8,-131.49 2116.78,-123.73"/>
<polygon fill="black" stroke="black" points="2117.43,-120.28 2106.85,-120.93 2115.53,-127.02 2117.43,-120.28"/>
</g>
<!-- openat&#45;&gt;epoll_ctl -->
<g id="edge87" class="edge">
<title>openat&#45;&gt;epoll_ctl</title>
<path fill="none" stroke="black" d="M1842.84,-821.52C1942.97,-789.08 2237.05,-679.92 2237.05,-474 2237.05,-474 2237.05,-474 2237.05,-400 2237.05,-353.76 2204.05,-309.04 2182.21,-282.52"/>
<polygon fill="black" stroke="black" points="2184.67,-280 2175.57,-274.57 2179.3,-284.48 2184.67,-280"/>
</g>
<!-- openat&#45;&gt;timerfd_settime -->
<g id="edge80" class="edge">
<title>openat&#45;&gt;timerfd_settime</title>
<path fill="none" stroke="black" d="M1811.43,-815C1818.42,-791.31 1835.82,-746.78 1844.05,-707 1870.72,-578.14 1873.41,-419.92 1877.64,-357.34"/>
<polygon fill="black" stroke="black" points="1881.15,-357.36 1878.42,-347.12 1874.17,-356.83 1881.15,-357.36"/>
</g>
<!-- openat&#45;&gt;write -->
<g id="edge76" class="edge">
<title>openat&#45;&gt;write</title>
<path fill="none" stroke="black" d="M1789.17,-817.32C1739.27,-778.04 1609.71,-668.73 1488.05,-599 1461.93,-584.03 1430.75,-570.8 1407.18,-561.3"/>
<polygon fill="black" stroke="black" points="1408.17,-557.93 1397.59,-557.47 1405.58,-564.43 1408.17,-557.93"/>
</g>
<!-- openat&#45;&gt;lseek -->
<g id="edge77" class="edge">
<title>openat&#45;&gt;lseek</title>
<path fill="none" stroke="black" d="M1803.36,-815.15C1797.73,-791.05 1791.77,-746.45 1790.07,-717.51"/>
<polygon fill="black" stroke="black" points="1793.56,-717.11 1789.64,-707.27 1786.57,-717.41 1793.56,-717.11"/>
</g>
<!-- openat&#45;&gt;readlink -->
<g id="edge88" class="edge">
<title>openat&#45;&gt;readlink</title>
<path fill="none" stroke="black" d="M1768.92,-828.79C1632.42,-817.67 1194.82,-780.79 1037.22,-767.14"/>
<polygon fill="black" stroke="black" points="1037.07,-763.61 1026.81,-766.23 1036.47,-770.58 1037.07,-763.61"/>
</g>
<!-- openat&#45;&gt;statx -->
<g id="edge83" class="edge">
<title>openat&#45;&gt;statx</title>
<path fill="none" stroke="black" d="M1771.51,-840.64C1687.93,-854.19 1490.92,-884.83 1403.27,-897.9"/>
<polygon fill="black" stroke="black" points="1402.52,-894.48 1393.14,-899.41 1403.55,-901.4 1402.52,-894.48"/>
</g>
<!-- openat&#45;&gt;openat -->
<g id="edge82" class="edge">
<title>openat&#45;&gt;openat</title>
<path fill="none" stroke="black" d="M1839.81,-845.94C1855.77,-848.14 1870.3,-843.83 1870.3,-833 1870.3,-824.54 1861.43,-820.06 1849.94,-819.55"/>
<polygon fill="black" stroke="black" points="1849.62,-816.06 1839.81,-820.06 1849.97,-823.05 1849.62,-816.06"/>
</g>
<!-- openat&#45;&gt;fcntl -->
<g id="edge78" class="edge">
<title>openat&#45;&gt;fcntl</title>
<path fill="none" stroke="black" d="M1816.77,-850.96C1824.76,-869.83 1839.41,-900.61 1858.05,-923 1868.75,-935.85 1882.97,-947.74 1895.47,-956.99"/>
<polygon fill="black" stroke="black" points="1893.62,-959.97 1903.79,-962.95 1897.7,-954.28 1893.62,-959.97"/>
</g>
<!-- fcntl&#45;&gt;clock_gettime -->
<g id="edge52" class="edge">
<title>fcntl&#45;&gt;clock_gettime</title>
<path fill="none" stroke="black" d="M1949.44,-988.2C1991,-1006.86 2075.5,-1046.49 2151.05,-1067 2245.6,-1092.67 2357.36,-1106.52 2431.05,-1113.54"/>
<polygon fill="black" stroke="black" points="2430.91,-1117.04 2441.19,-1114.49 2431.56,-1110.07 2430.91,-1117.04"/>
</g>
<!-- fcntl&#45;&gt;ioctl -->
<g id="edge53" class="edge">
<title>fcntl&#45;&gt;ioctl</title>
<path fill="none" stroke="black" d="M1896.65,-986.32C1848.23,-999.67 1747.94,-1025.78 1692.94,-1039.34"/>
<polygon fill="black" stroke="black" points="1692.11,-1035.95 1683.23,-1041.73 1693.77,-1042.75 1692.11,-1035.95"/>
</g>
<!-- fcntl&#45;&gt;epoll_wait -->
<g id="edge54" class="edge">
<title>fcntl&#45;&gt;epoll_wait</title>
<path fill="none" stroke="black" d="M1892.07,-976.06C1722.1,-975.64 927.38,-963.69 795.05,-779 706.4,-655.26 783.1,-544.74 906.05,-455 955.78,-418.71 1025.75,-406.52 1077.13,-402.77"/>
<polygon fill="black" stroke="black" points="1077.39,-406.26 1087.15,-402.13 1076.94,-399.28 1077.39,-406.26"/>
</g>
<!-- fcntl&#45;&gt;read -->
<g id="edge55" class="edge">
<title>fcntl&#45;&gt;read</title>
<path fill="none" stroke="black" d="M1943.8,-962.61C1962.6,-952.33 1990.98,-937.49 2015.05,-923 2039.45,-908.31 2042.09,-898.7 2068.05,-887 2127.02,-860.43 2146.64,-867.95 2209.05,-851 2236.95,-843.42 2439.12,-799.93 2459.05,-779 2481.73,-755.19 2472.25,-739.66 2476.05,-707 2506.39,-446.48 2450.81,-320.37 2238.05,-167 2202.11,-141.09 2153.09,-127.56 2118.7,-120.68"/>
<polygon fill="black" stroke="black" points="2119.01,-117.17 2108.53,-118.75 2117.7,-124.05 2119.01,-117.17"/>
</g>
<!-- fcntl&#45;&gt;epoll_ctl -->
<g id="edge56" class="edge">
<title>fcntl&#45;&gt;epoll_ctl</title>
<path fill="none" stroke="black" d="M1932.31,-959.4C1948.07,-939.41 1981.71,-906.12 2017.05,-887 2121.01,-830.77 2158.57,-844.38 2273.05,-815 2341.56,-797.42 2384.06,-834.38 2428.05,-779 2452.06,-748.78 2519.45,-585.88 2267.05,-311 2251.3,-293.84 2228.84,-281.72 2208.84,-273.44"/>
<polygon fill="black" stroke="black" points="2209.84,-270.07 2199.26,-269.68 2207.29,-276.59 2209.84,-270.07"/>
</g>
<!-- fcntl&#45;&gt;write -->
<g id="edge58" class="edge">
<title>fcntl&#45;&gt;write</title>
<path fill="none" stroke="black" d="M1895.18,-969.29C1864.38,-961.31 1814.92,-946.1 1777.05,-923 1606.75,-819.1 1446.23,-635.67 1391.69,-570.12"/>
<polygon fill="black" stroke="black" points="1394.07,-567.5 1385,-562.02 1388.67,-571.96 1394.07,-567.5"/>
</g>
<!-- fcntl&#45;&gt;readlink -->
<g id="edge57" class="edge">
<title>fcntl&#45;&gt;readlink</title>
<path fill="none" stroke="black" d="M1895.03,-969.42C1761.09,-939.06 1202.05,-812.33 1030.4,-773.41"/>
<polygon fill="black" stroke="black" points="1031.14,-769.99 1020.61,-771.19 1029.59,-776.82 1031.14,-769.99"/>
</g>
<!-- fcntl&#45;&gt;statx -->
<g id="edge59" class="edge">
<title>fcntl&#45;&gt;statx</title>
<path fill="none" stroke="black" d="M1893.33,-972.19C1798.91,-960.47 1512.77,-924.95 1403.29,-911.37"/>
<polygon fill="black" stroke="black" points="1403.62,-907.88 1393.26,-910.12 1402.75,-914.83 1403.62,-907.88"/>
</g>
<!-- futex&#45;&gt;clock_gettime -->
<g id="edge74" class="edge">
<title>futex&#45;&gt;clock_gettime</title>
<path fill="none" stroke="black" d="M987.46,-489.79C976.59,-499.47 962.09,-512.72 952.05,-527 886.96,-619.62 867.29,-676.37 915.05,-779 1017.15,-998.37 1141.53,-1011.57 1377.05,-1067 1576.66,-1113.98 2197.69,-1119.65 2425.89,-1120.09"/>
<polygon fill="black" stroke="black" points="2426.12,-1123.59 2436.13,-1120.11 2426.13,-1116.59 2426.12,-1123.59"/>
</g>
<!-- futex&#45;&gt;ioctl -->
<g id="edge75" class="edge">
<title>futex&#45;&gt;ioctl</title>
<path fill="none" stroke="black" d="M989.25,-490.1C956.39,-537.02 869.69,-676.76 922.05,-779 1027.97,-985.77 1172.16,-940.73 1398.05,-995 1474.97,-1013.48 1565.79,-1031.28 1616.26,-1040.81"/>
<polygon fill="black" stroke="black" points="1615.92,-1044.31 1626.4,-1042.72 1617.22,-1037.43 1615.92,-1044.31"/>
</g>
<!-- futex&#45;&gt;epoll_wait -->
<g id="edge72" class="edge">
<title>futex&#45;&gt;epoll_wait</title>
<path fill="none" stroke="black" d="M1022.73,-458.83C1043.73,-447.86 1075.9,-432.13 1102.05,-420"/>
<polygon fill="black" stroke="black" points="1103.75,-423.06 1111.37,-415.71 1100.83,-416.71 1103.75,-423.06"/>
</g>
<!-- futex&#45;&gt;write -->
<g id="edge71" class="edge">
<title>futex&#45;&gt;write</title>
<path fill="none" stroke="black" d="M1033.5,-479.4C1100.94,-491.45 1255.65,-520.58 1330.35,-535.25"/>
<polygon fill="black" stroke="black" points="1329.85,-538.72 1340.34,-537.22 1331.21,-531.86 1329.85,-538.72"/>
</g>
<!-- futex&#45;&gt;readlink -->
<g id="edge73" class="edge">
<title>futex&#45;&gt;readlink</title>
<path fill="none" stroke="black" d="M1011.01,-490.43C1033.48,-529.8 1083.43,-631.85 1047.05,-707 1040.45,-720.64 1028.44,-731.84 1016.4,-740.37"/>
<polygon fill="black" stroke="black" points="1014.12,-737.68 1007.7,-746.1 1017.97,-743.52 1014.12,-737.68"/>
</g>
<!-- sendto&#45;&gt;lseek -->
<g id="edge203" class="edge">
<title>sendto&#45;&gt;lseek</title>
<path fill="none" stroke="black" d="M2308.53,-959.64C2294.14,-940.19 2267.88,-907.75 2239.05,-887 2203.04,-861.08 1927.17,-745.88 1827.68,-704.7"/>
<polygon fill="black" stroke="black" points="1828.93,-701.43 1818.35,-700.84 1826.25,-707.89 1828.93,-701.43"/>
</g>
<!-- recvfrom&#45;&gt;clock_gettime -->
<g id="edge61" class="edge">
<title>recvfrom&#45;&gt;clock_gettime</title>
<path fill="none" stroke="black" d="M2769.23,-201.79C2812.94,-242.61 2911.05,-356.56 2911.05,-472 2911.05,-762 2911.05,-762 2911.05,-762 2911.05,-933.3 2813.67,-1029.26 2765.05,-1067 2738.17,-1087.87 2652.71,-1103.02 2588.21,-1111.65"/>
<polygon fill="black" stroke="black" points="2587.52,-1108.21 2578.05,-1112.98 2588.42,-1115.15 2587.52,-1108.21"/>
</g>
<!-- recvfrom&#45;&gt;ioctl -->
<g id="edge60" class="edge">
<title>recvfrom&#45;&gt;ioctl</title>
<path fill="none" stroke="black" d="M2752.04,-202.98C2764.84,-281.69 2807,-614.16 2639.05,-779 2545.93,-870.4 2220.13,-965.37 2093.05,-995 1949.32,-1028.52 1773.82,-1041.6 1695.8,-1046.03"/>
<polygon fill="black" stroke="black" points="1695.24,-1042.55 1685.45,-1046.6 1695.63,-1049.54 1695.24,-1042.55"/>
</g>
<!-- gettimeofday&#45;&gt;write -->
<g id="edge62" class="edge">
<title>gettimeofday&#45;&gt;write</title>
<path fill="none" stroke="black" d="M2124.88,-888.86C2011.04,-836.82 1640.64,-666.79 1591.05,-635 1570.07,-621.55 1569.99,-610.83 1548.05,-599 1505.44,-576.01 1451.51,-561.65 1414.65,-553.77"/>
<polygon fill="black" stroke="black" points="1415.23,-550.32 1404.73,-551.72 1413.81,-557.17 1415.23,-550.32"/>
</g>
<!-- START -->
<g id="node21" class="node">
<title>START</title>
<ellipse fill="none" stroke="black" cx="2157.05" cy="-185" rx="41.69" ry="18"/>
<text text-anchor="middle" x="2157.05" y="-181.3" font-family="Times,serif" font-size="14.00">START</text>
</g>
<!-- START&#45;&gt;read -->
<g id="edge116" class="edge">
<title>START&#45;&gt;read</title>
<path fill="none" stroke="black" d="M2139.52,-168.46C2128.48,-158.68 2114.09,-145.93 2102.01,-135.22"/>
<polygon fill="black" stroke="black" points="2104.26,-132.55 2094.46,-128.54 2099.62,-137.79 2104.26,-132.55"/>
</g>
</g>
</svg>
