<?xml version="1.0" encoding="UTF-8" standalone="no"?>
<!DOCTYPE svg PUBLIC "-//W3C//DTD SVG 1.1//EN"
 "http://www.w3.org/Graphics/SVG/1.1/DTD/svg11.dtd">
<!-- Generated by graphviz version 2.43.0 (0)
 -->
<!-- Title: %3 Pages: 1 -->
<svg width="908pt" height="715pt"
 viewBox="0.00 0.00 908.00 715.00" xmlns="http://www.w3.org/2000/svg" xmlns:xlink="http://www.w3.org/1999/xlink">
<g id="graph0" class="graph" transform="scale(1 1) rotate(0) translate(4 711)">
<title>%3</title>
<polygon fill="white" stroke="transparent" points="-4,4 -4,-711 904,-711 904,4 -4,4"/>
<text text-anchor="middle" x="450" y="-7.8" font-family="Times,serif" font-size="14.00">System Call Sequence</text>
<!-- ioctl -->
<g id="node1" class="node">
<title>ioctl</title>
<ellipse fill="none" stroke="black" cx="121" cy="-689" rx="30.59" ry="18"/>
<text text-anchor="middle" x="121" y="-685.3" font-family="Times,serif" font-size="14.00">ioctl</text>
</g>
<!-- ioctl&#45;&gt;ioctl -->
<g id="edge5" class="edge">
<title>ioctl&#45;&gt;ioctl</title>
<path fill="none" stroke="black" d="M142.97,-701.55C156.59,-704.57 169.55,-700.39 169.55,-689 169.55,-680.55 162.41,-676.06 153.16,-675.55"/>
<polygon fill="black" stroke="black" points="152.62,-672.08 142.97,-676.45 153.24,-679.06 152.62,-672.08"/>
</g>
<!-- close -->
<g id="node2" class="node">
<title>close</title>
<ellipse fill="none" stroke="black" cx="268" cy="-617" rx="34.39" ry="18"/>
<text text-anchor="middle" x="268" y="-613.3" font-family="Times,serif" font-size="14.00">close</text>
</g>
<!-- ioctl&#45;&gt;close -->
<g id="edge1" class="edge">
<title>ioctl&#45;&gt;close</title>
<path fill="none" stroke="black" d="M141.65,-675.65C165.14,-663.59 203.57,-645.24 231.97,-632.5"/>
<polygon fill="black" stroke="black" points="233.46,-635.66 241.18,-628.41 230.62,-629.27 233.46,-635.66"/>
</g>
<!-- clock_gettime -->
<g id="node3" class="node">
<title>clock_gettime</title>
<ellipse fill="none" stroke="black" cx="344" cy="-257" rx="74.99" ry="18"/>
<text text-anchor="middle" x="344" y="-253.3" font-family="Times,serif" font-size="14.00">clock_gettime</text>
</g>
<!-- ioctl&#45;&gt;clock_gettime -->
<g id="edge2" class="edge">
<title>ioctl&#45;&gt;clock_gettime</title>
<path fill="none" stroke="black" d="M98.02,-676.95C62.67,-655.76 0,-606.13 0,-546 0,-546 0,-546 0,-400 0,-289.31 156.96,-263.62 258.89,-258.43"/>
<polygon fill="black" stroke="black" points="259.36,-261.91 269.19,-257.97 259.04,-254.92 259.36,-261.91"/>
</g>
<!-- sendmsg -->
<g id="node4" class="node">
<title>sendmsg</title>
<ellipse fill="none" stroke="black" cx="98" cy="-473" rx="51.99" ry="18"/>
<text text-anchor="middle" x="98" y="-469.3" font-family="Times,serif" font-size="14.00">sendmsg</text>
</g>
<!-- ioctl&#45;&gt;sendmsg -->
<g id="edge3" class="edge">
<title>ioctl&#45;&gt;sendmsg</title>
<path fill="none" stroke="black" d="M115.57,-671C112.52,-660.7 108.94,-647.22 107,-635 99.64,-588.5 98.06,-533.61 97.85,-501.43"/>
<polygon fill="black" stroke="black" points="101.35,-501.03 97.83,-491.04 94.35,-501.05 101.35,-501.03"/>
</g>
<!-- openat -->
<g id="node5" class="node">
<title>openat</title>
<ellipse fill="none" stroke="black" cx="830" cy="-329" rx="42.49" ry="18"/>
<text text-anchor="middle" x="830" y="-325.3" font-family="Times,serif" font-size="14.00">openat</text>
</g>
<!-- ioctl&#45;&gt;openat -->
<g id="edge4" class="edge">
<title>ioctl&#45;&gt;openat</title>
<path fill="none" stroke="black" d="M151.72,-688.54C288.58,-690.15 836,-687.74 836,-546 836,-546 836,-546 836,-472 836,-431.96 833.59,-385.63 831.82,-357.07"/>
<polygon fill="black" stroke="black" points="835.31,-356.8 831.19,-347.04 828.33,-357.24 835.31,-356.8"/>
</g>
<!-- close&#45;&gt;ioctl -->
<g id="edge26" class="edge">
<title>close&#45;&gt;ioctl</title>
<path fill="none" stroke="black" d="M246.01,-631.04C221.95,-643.34 183.4,-661.72 155.38,-674.24"/>
<polygon fill="black" stroke="black" points="153.68,-671.17 145.95,-678.41 156.51,-677.57 153.68,-671.17"/>
</g>
<!-- close&#45;&gt;close -->
<g id="edge31" class="edge">
<title>close&#45;&gt;close</title>
<path fill="none" stroke="black" d="M292.55,-629.71C306.96,-632.42 320.45,-628.18 320.45,-617 320.45,-608.53 312.7,-604.04 302.68,-603.55"/>
<polygon fill="black" stroke="black" points="302.27,-600.07 292.55,-604.29 302.78,-607.05 302.27,-600.07"/>
</g>
<!-- close&#45;&gt;clock_gettime -->
<g id="edge30" class="edge">
<title>close&#45;&gt;clock_gettime</title>
<path fill="none" stroke="black" d="M250.42,-601.27C240.29,-591.58 228.49,-577.96 223,-563 217.48,-547.98 219.64,-542.64 223,-527 243.35,-432.15 299.85,-330.36 327.85,-283.86"/>
<polygon fill="black" stroke="black" points="331,-285.41 333.21,-275.05 325.02,-281.77 331,-285.41"/>
</g>
<!-- close&#45;&gt;sendmsg -->
<g id="edge27" class="edge">
<title>close&#45;&gt;sendmsg</title>
<path fill="none" stroke="black" d="M244.58,-603.52C226.89,-593.6 202.43,-578.8 183,-563 158.78,-543.3 134.52,-517.09 118.15,-498.22"/>
<polygon fill="black" stroke="black" points="120.81,-495.94 111.64,-490.63 115.49,-500.5 120.81,-495.94"/>
</g>
<!-- readlink -->
<g id="node8" class="node">
<title>readlink</title>
<ellipse fill="none" stroke="black" cx="665" cy="-401" rx="48.99" ry="18"/>
<text text-anchor="middle" x="665" y="-397.3" font-family="Times,serif" font-size="14.00">readlink</text>
</g>
<!-- close&#45;&gt;readlink -->
<g id="edge29" class="edge">
<title>close&#45;&gt;readlink</title>
<path fill="none" stroke="black" d="M291.06,-603.57C357.45,-567.78 549.39,-464.32 629.37,-421.21"/>
<polygon fill="black" stroke="black" points="631.41,-424.09 638.55,-416.26 628.08,-417.92 631.41,-424.09"/>
</g>
<!-- lseek -->
<g id="node13" class="node">
<title>lseek</title>
<ellipse fill="none" stroke="black" cx="751" cy="-545" rx="34.39" ry="18"/>
<text text-anchor="middle" x="751" y="-541.3" font-family="Times,serif" font-size="14.00">lseek</text>
</g>
<!-- close&#45;&gt;lseek -->
<g id="edge28" class="edge">
<title>close&#45;&gt;lseek</title>
<path fill="none" stroke="black" d="M300.82,-611.24C385.75,-598.93 612.75,-566.04 707.99,-552.23"/>
<polygon fill="black" stroke="black" points="708.74,-555.66 718.14,-550.76 707.74,-548.73 708.74,-555.66"/>
</g>
<!-- clock_gettime&#45;&gt;ioctl -->
<g id="edge19" class="edge">
<title>clock_gettime&#45;&gt;ioctl</title>
<path fill="none" stroke="black" d="M269.49,-258.52C173.21,-263.91 18,-289.93 18,-400 18,-546 18,-546 18,-546 18,-598.23 65.3,-642.55 95.95,-667.17"/>
<polygon fill="black" stroke="black" points="94.08,-670.15 104.1,-673.59 98.41,-664.65 94.08,-670.15"/>
</g>
<!-- clock_gettime&#45;&gt;clock_gettime -->
<g id="edge17" class="edge">
<title>clock_gettime&#45;&gt;clock_gettime</title>
<path fill="none" stroke="black" d="M394.56,-270.29C417.18,-271.55 436.74,-267.12 436.74,-257 436.74,-248.42 422.69,-243.93 404.63,-243.53"/>
<polygon fill="black" stroke="black" points="404.5,-240.03 394.56,-243.71 404.62,-247.03 404.5,-240.03"/>
</g>
<!-- recvmsg -->
<g id="node6" class="node">
<title>recvmsg</title>
<ellipse fill="none" stroke="black" cx="266" cy="-185" rx="50.09" ry="18"/>
<text text-anchor="middle" x="266" y="-181.3" font-family="Times,serif" font-size="14.00">recvmsg</text>
</g>
<!-- clock_gettime&#45;&gt;recvmsg -->
<g id="edge21" class="edge">
<title>clock_gettime&#45;&gt;recvmsg</title>
<path fill="none" stroke="black" d="M320.11,-239.76C309.21,-230.88 296.55,-219.71 286.14,-209.85"/>
<polygon fill="black" stroke="black" points="288.31,-207.08 278.69,-202.63 283.44,-212.1 288.31,-207.08"/>
</g>
<!-- read -->
<g id="node7" class="node">
<title>read</title>
<ellipse fill="none" stroke="black" cx="344" cy="-473" rx="31.7" ry="18"/>
<text text-anchor="middle" x="344" y="-469.3" font-family="Times,serif" font-size="14.00">read</text>
</g>
<!-- clock_gettime&#45;&gt;read -->
<g id="edge20" class="edge">
<title>clock_gettime&#45;&gt;read</title>
<path fill="none" stroke="black" d="M347.89,-275.23C351.42,-312.32 351.68,-399.98 348.69,-444.71"/>
<polygon fill="black" stroke="black" points="345.18,-444.6 347.88,-454.85 352.16,-445.16 345.18,-444.6"/>
</g>
<!-- timerfd_settime -->
<g id="node9" class="node">
<title>timerfd_settime</title>
<ellipse fill="none" stroke="black" cx="457" cy="-185" rx="85.29" ry="18"/>
<text text-anchor="middle" x="457" y="-181.3" font-family="Times,serif" font-size="14.00">timerfd_settime</text>
</g>
<!-- clock_gettime&#45;&gt;timerfd_settime -->
<g id="edge18" class="edge">
<title>clock_gettime&#45;&gt;timerfd_settime</title>
<path fill="none" stroke="black" d="M369.92,-239.94C385.46,-230.32 405.41,-217.96 422.29,-207.5"/>
<polygon fill="black" stroke="black" points="424.15,-210.47 430.8,-202.23 420.46,-204.52 424.15,-210.47"/>
</g>
<!-- write -->
<g id="node11" class="node">
<title>write</title>
<ellipse fill="none" stroke="black" cx="472" cy="-329" rx="35.19" ry="18"/>
<text text-anchor="middle" x="472" y="-325.3" font-family="Times,serif" font-size="14.00">write</text>
</g>
<!-- clock_gettime&#45;&gt;write -->
<g id="edge15" class="edge">
<title>clock_gettime&#45;&gt;write</title>
<path fill="none" stroke="black" d="M377.45,-273.19C397.88,-283.66 423.63,-297.67 443.16,-308.9"/>
<polygon fill="black" stroke="black" points="441.53,-312 451.93,-314 445.05,-305.95 441.53,-312"/>
</g>
<!-- epoll_wait -->
<g id="node12" class="node">
<title>epoll_wait</title>
<ellipse fill="none" stroke="black" cx="318" cy="-41" rx="57.69" ry="18"/>
<text text-anchor="middle" x="318" y="-37.3" font-family="Times,serif" font-size="14.00">epoll_wait</text>
</g>
<!-- clock_gettime&#45;&gt;epoll_wait -->
<g id="edge16" class="edge">
<title>clock_gettime&#45;&gt;epoll_wait</title>
<path fill="none" stroke="black" d="M277.12,-248.73C247.53,-241.9 215.59,-228.66 198,-203 163.13,-152.12 233.67,-92.36 280.78,-61.96"/>
<polygon fill="black" stroke="black" points="282.66,-64.91 289.27,-56.63 278.94,-58.98 282.66,-64.91"/>
</g>
<!-- sendmsg&#45;&gt;clock_gettime -->
<g id="edge39" class="edge">
<title>sendmsg&#45;&gt;clock_gettime</title>
<path fill="none" stroke="black" d="M88.74,-454.98C80.04,-436.6 69.78,-406.75 80,-383 98.38,-340.26 115.54,-333.98 156,-311 191.85,-290.64 236.04,-277.66 272.58,-269.65"/>
<polygon fill="black" stroke="black" points="273.6,-273.01 282.66,-267.52 272.16,-266.16 273.6,-273.01"/>
</g>
<!-- openat&#45;&gt;lseek -->
<g id="edge45" class="edge">
<title>openat&#45;&gt;lseek</title>
<path fill="none" stroke="black" d="M824.53,-347.07C814.95,-376.64 794.23,-439.17 774,-491 770.5,-499.96 766.4,-509.65 762.63,-518.26"/>
<polygon fill="black" stroke="black" points="759.42,-516.86 758.57,-527.42 765.82,-519.7 759.42,-516.86"/>
</g>
<!-- statx -->
<g id="node14" class="node">
<title>statx</title>
<ellipse fill="none" stroke="black" cx="751" cy="-257" rx="34.39" ry="18"/>
<text text-anchor="middle" x="751" y="-253.3" font-family="Times,serif" font-size="14.00">statx</text>
</g>
<!-- openat&#45;&gt;statx -->
<g id="edge44" class="edge">
<title>openat&#45;&gt;statx</title>
<path fill="none" stroke="black" d="M812.47,-312.46C801.5,-302.75 787.23,-290.1 775.2,-279.44"/>
<polygon fill="black" stroke="black" points="777.48,-276.79 767.67,-272.77 772.84,-282.02 777.48,-276.79"/>
</g>
<!-- recvmsg&#45;&gt;clock_gettime -->
<g id="edge6" class="edge">
<title>recvmsg&#45;&gt;clock_gettime</title>
<path fill="none" stroke="black" d="M288.52,-201.12C299.63,-210.1 312.81,-221.7 323.61,-231.92"/>
<polygon fill="black" stroke="black" points="321.37,-234.62 331,-239.05 326.24,-229.59 321.37,-234.62"/>
</g>
<!-- read&#45;&gt;ioctl -->
<g id="edge13" class="edge">
<title>read&#45;&gt;ioctl</title>
<path fill="none" stroke="black" d="M315.46,-481.27C289.14,-489.11 250.14,-503.69 223,-527 178.9,-564.86 147.3,-626.57 131.8,-661.57"/>
<polygon fill="black" stroke="black" points="128.44,-660.54 127.69,-671.11 134.86,-663.31 128.44,-660.54"/>
</g>
<!-- read&#45;&gt;close -->
<g id="edge7" class="edge">
<title>read&#45;&gt;close</title>
<path fill="none" stroke="black" d="M343.38,-491.15C342.04,-509.91 337.86,-540.33 325,-563 317.83,-575.64 306.62,-587.02 296.03,-595.96"/>
<polygon fill="black" stroke="black" points="293.74,-593.31 288.13,-602.31 298.12,-598.77 293.74,-593.31"/>
</g>
<!-- read&#45;&gt;clock_gettime -->
<g id="edge9" class="edge">
<title>read&#45;&gt;clock_gettime</title>
<path fill="none" stroke="black" d="M340.12,-454.85C336.59,-417.83 336.32,-330.18 339.31,-285.39"/>
<polygon fill="black" stroke="black" points="342.81,-285.48 340.11,-275.23 335.83,-284.92 342.81,-285.48"/>
</g>
<!-- read&#45;&gt;read -->
<g id="edge14" class="edge">
<title>read&#45;&gt;read</title>
<path fill="none" stroke="black" d="M366.82,-485.6C380.7,-488.52 393.85,-484.32 393.85,-473 393.85,-464.51 386.45,-460.02 376.9,-459.54"/>
<polygon fill="black" stroke="black" points="376.48,-456.07 366.82,-460.4 377.07,-463.04 376.48,-456.07"/>
</g>
<!-- read&#45;&gt;readlink -->
<g id="edge8" class="edge">
<title>read&#45;&gt;readlink</title>
<path fill="none" stroke="black" d="M373.93,-466.47C422.14,-457.41 519.92,-438.49 602,-419 607.04,-417.8 612.28,-416.49 617.51,-415.15"/>
<polygon fill="black" stroke="black" points="618.67,-418.46 627.45,-412.53 616.89,-411.69 618.67,-418.46"/>
</g>
<!-- read&#45;&gt;timerfd_settime -->
<g id="edge10" class="edge">
<title>read&#45;&gt;timerfd_settime</title>
<path fill="none" stroke="black" d="M348.8,-455C368.47,-408.07 435.51,-279.81 437,-275 443.25,-254.83 445.96,-231.05 448.47,-213.15"/>
<polygon fill="black" stroke="black" points="451.96,-213.52 450,-203.11 445.04,-212.47 451.96,-213.52"/>
</g>
<!-- epoll_ctl -->
<g id="node10" class="node">
<title>epoll_ctl</title>
<ellipse fill="none" stroke="black" cx="457" cy="-113" rx="49.29" ry="18"/>
<text text-anchor="middle" x="457" y="-109.3" font-family="Times,serif" font-size="14.00">epoll_ctl</text>
</g>
<!-- read&#45;&gt;epoll_ctl -->
<g id="edge11" class="edge">
<title>read&#45;&gt;epoll_ctl</title>
<path fill="none" stroke="black" d="M374.55,-467.15C436.43,-455.99 570,-422 570,-330 570,-330 570,-330 570,-256 570,-214.53 568.11,-199.21 542,-167 529.87,-152.03 512.32,-140.54 496.25,-132.14"/>
<polygon fill="black" stroke="black" points="497.52,-128.87 487,-127.56 494.4,-135.14 497.52,-128.87"/>
</g>
<!-- read&#45;&gt;write -->
<g id="edge12" class="edge">
<title>read&#45;&gt;write</title>
<path fill="none" stroke="black" d="M367.26,-460.32C384.27,-450.91 407.05,-436.42 423,-419 439.94,-400.5 453.18,-375.09 461.61,-356.16"/>
<polygon fill="black" stroke="black" points="464.84,-357.49 465.57,-346.92 458.41,-354.73 464.84,-357.49"/>
</g>
<!-- readlink&#45;&gt;openat -->
<g id="edge33" class="edge">
<title>readlink&#45;&gt;openat</title>
<path fill="none" stroke="black" d="M695.65,-387C722.78,-375.49 762.49,-358.64 791.7,-346.25"/>
<polygon fill="black" stroke="black" points="793.33,-349.36 801.17,-342.23 790.6,-342.91 793.33,-349.36"/>
</g>
<!-- readlink&#45;&gt;write -->
<g id="edge34" class="edge">
<title>readlink&#45;&gt;write</title>
<path fill="none" stroke="black" d="M631.38,-387.81C597.32,-375.45 544.76,-356.39 509.4,-343.57"/>
<polygon fill="black" stroke="black" points="510.51,-340.24 499.92,-340.12 508.12,-346.82 510.51,-340.24"/>
</g>
<!-- timerfd_settime&#45;&gt;read -->
<g id="edge23" class="edge">
<title>timerfd_settime&#45;&gt;read</title>
<path fill="none" stroke="black" d="M463.35,-203.11C464.91,-221.31 462.51,-250.76 455,-275 453.58,-279.58 392.7,-396.13 361.46,-447.77"/>
<polygon fill="black" stroke="black" points="358.45,-445.98 356.17,-456.33 364.4,-449.66 358.45,-445.98"/>
</g>
<!-- timerfd_settime&#45;&gt;epoll_ctl -->
<g id="edge22" class="edge">
<title>timerfd_settime&#45;&gt;epoll_ctl</title>
<path fill="none" stroke="black" d="M457,-166.7C457,-158.98 457,-149.71 457,-141.11"/>
<polygon fill="black" stroke="black" points="460.5,-141.1 457,-131.1 453.5,-141.1 460.5,-141.1"/>
</g>
<!-- epoll_ctl&#45;&gt;clock_gettime -->
<g id="edge35" class="edge">
<title>epoll_ctl&#45;&gt;clock_gettime</title>
<path fill="none" stroke="black" d="M421.58,-125.62C401.44,-134.02 377.42,-147.38 363,-167 349.88,-184.85 345.43,-209.86 344.09,-228.82"/>
<polygon fill="black" stroke="black" points="340.59,-228.77 343.63,-238.92 347.58,-229.09 340.59,-228.77"/>
</g>
<!-- epoll_ctl&#45;&gt;read -->
<g id="edge37" class="edge">
<title>epoll_ctl&#45;&gt;read</title>
<path fill="none" stroke="black" d="M495.24,-124.42C517.3,-132.88 543.6,-146.77 560,-167 586.11,-199.21 588,-214.53 588,-256 588,-330 588,-330 588,-330 588,-421.82 454.97,-455.85 385.26,-467.08"/>
<polygon fill="black" stroke="black" points="384.41,-463.67 375.05,-468.63 385.46,-470.59 384.41,-463.67"/>
</g>
<!-- epoll_ctl&#45;&gt;epoll_ctl -->
<g id="edge38" class="edge">
<title>epoll_ctl&#45;&gt;epoll_ctl</title>
<path fill="none" stroke="black" d="M491.33,-126.06C508.76,-127.97 524.4,-123.62 524.4,-113 524.4,-104.54 514.47,-100.06 501.61,-99.55"/>
<polygon fill="black" stroke="black" points="501.19,-96.06 491.33,-99.94 501.45,-103.06 501.19,-96.06"/>
</g>
<!-- epoll_ctl&#45;&gt;epoll_wait -->
<g id="edge36" class="edge">
<title>epoll_ctl&#45;&gt;epoll_wait</title>
<path fill="none" stroke="black" d="M429.21,-98C408.32,-87.48 379.45,-72.95 356.36,-61.32"/>
<polygon fill="black" stroke="black" points="357.69,-58.07 347.18,-56.7 354.54,-64.32 357.69,-58.07"/>
</g>
<!-- write&#45;&gt;clock_gettime -->
<g id="edge24" class="edge">
<title>write&#45;&gt;clock_gettime</title>
<path fill="none" stroke="black" d="M446.01,-316.6C425.87,-306.5 398.05,-291.49 376.48,-279.19"/>
<polygon fill="black" stroke="black" points="378.07,-276.06 367.66,-274.1 374.58,-282.13 378.07,-276.06"/>
</g>
<!-- write&#45;&gt;timerfd_settime -->
<g id="edge25" class="edge">
<title>write&#45;&gt;timerfd_settime</title>
<path fill="none" stroke="black" d="M482.42,-311.78C492.59,-293.82 505.41,-264.11 497,-239 493.59,-228.83 487.38,-219.06 480.86,-210.73"/>
<polygon fill="black" stroke="black" points="483.42,-208.35 474.32,-202.93 478.06,-212.84 483.42,-208.35"/>
</g>
<!-- epoll_wait&#45;&gt;ioctl -->
<g id="edge43" class="edge">
<title>epoll_wait&#45;&gt;ioctl</title>
<path fill="none" stroke="black" d="M375.13,-43.84C521.77,-50.11 900,-76.68 900,-184 900,-546 900,-546 900,-546 900,-612.76 841.54,-611.65 779,-635 665.02,-677.55 287.52,-685.98 161.99,-687.61"/>
<polygon fill="black" stroke="black" points="161.63,-684.12 151.67,-687.74 161.71,-691.12 161.63,-684.12"/>
</g>
<!-- epoll_wait&#45;&gt;clock_gettime -->
<g id="edge41" class="edge">
<title>epoll_wait&#45;&gt;clock_gettime</title>
<path fill="none" stroke="black" d="M297.72,-57.98C258.34,-86.88 179.53,-149.79 216,-203 229.63,-222.88 251.86,-235.31 274.05,-243.07"/>
<polygon fill="black" stroke="black" points="273.27,-246.5 283.86,-246.22 275.41,-239.83 273.27,-246.5"/>
</g>
<!-- epoll_wait&#45;&gt;read -->
<g id="edge42" class="edge">
<title>epoll_wait&#45;&gt;read</title>
<path fill="none" stroke="black" d="M276.26,-53.53C221.42,-71.51 132,-111.89 132,-184 132,-330 132,-330 132,-330 132,-412.04 242.94,-449.69 304.31,-464.25"/>
<polygon fill="black" stroke="black" points="303.55,-467.66 314.08,-466.47 305.1,-460.84 303.55,-467.66"/>
</g>
<!-- lseek&#45;&gt;read -->
<g id="edge47" class="edge">
<title>lseek&#45;&gt;read</title>
<path fill="none" stroke="black" d="M718.72,-538.45C645.13,-525.79 465.05,-494.82 384.31,-480.93"/>
<polygon fill="black" stroke="black" points="384.51,-477.42 374.06,-479.17 383.32,-484.31 384.51,-477.42"/>
</g>
<!-- lseek&#45;&gt;statx -->
<g id="edge46" class="edge">
<title>lseek&#45;&gt;statx</title>
<path fill="none" stroke="black" d="M747.59,-526.97C743.4,-479.18 743.15,-343.54 746.83,-285.22"/>
<polygon fill="black" stroke="black" points="750.35,-285.18 747.59,-274.94 743.37,-284.66 750.35,-285.18"/>
</g>
<!-- statx&#45;&gt;lseek -->
<g id="edge32" class="edge">
<title>statx&#45;&gt;lseek</title>
<path fill="none" stroke="black" d="M754.41,-274.94C758.59,-322.62 758.85,-458.25 755.17,-516.68"/>
<polygon fill="black" stroke="black" points="751.66,-516.74 754.41,-526.97 758.64,-517.25 751.66,-516.74"/>
</g>
<!-- START -->
<g id="node15" class="node">
<title>START</title>
<ellipse fill="none" stroke="black" cx="274" cy="-545" rx="41.69" ry="18"/>
<text text-anchor="middle" x="274" y="-541.3" font-family="Times,serif" font-size="14.00">START</text>
</g>
<!-- START&#45;&gt;read -->
<g id="edge40" class="edge">
<title>START&#45;&gt;read</title>
<path fill="none" stroke="black" d="M289.88,-528.12C299.23,-518.77 311.21,-506.79 321.51,-496.49"/>
<polygon fill="black" stroke="black" points="324.06,-498.89 328.66,-489.34 319.11,-493.94 324.06,-498.89"/>
</g>
</g>
</svg>
